<svg version="1.2" xmlns="http://www.w3.org/2000/svg" viewBox="0 0 1920 1080" width="1920" height="1080">
	<title>tentalogov2</title>
	<style>
		.s0 { fill: #ffffff } 
		.s1 { fill: #ff52a5 } 
		.s2 { fill: #ff7bba } 
	</style>
	<g id="Background">
		<path id="Path 0" class="s0" d="m0 540v540h1920v-1080h-1920z"/>
		<path id="Path 1" class="s1" d="m1100.1 316.4l-14.4 4.1c1 48.8 1.7 64.1 2.1 65.4 0.5 1.8 1.2 2.2 3.2 1.8 1.4-0.3 4.1-1 6-1.6 1.9-0.5 6-1.7 9-2.5 3-0.8 6.8-1.9 8.5-2.4l3-0.9c0 11.5 0.3 15.4 0.7 16 0.4 0.7 0.5-14.3 0.2-33.3-0.2-19-0.7-38.2-0.9-42.7-0.3-6-0.8-8.3-1.7-8.2-0.7 0.1-7.8 2-15.7 4.3zm-803.7 31.3c-0.5 2.1-0.8 6.1-0.9 8.8 0 2.8 0.3 10.9 0.8 18 0.4 7.1 0.9 17.1 1.2 22 0.3 5 1 16.4 1.6 25.5 0.8 12.7 1.7 18.2 3.6 24 1.3 4.1 3.5 9.3 4.8 11.5 1.2 2.2 4.9 6.5 8.1 9.6 3.3 3.1 7.5 6.4 9.4 7.4 1.9 1 6.2 2.6 9.5 3.7 3.6 1.2 9 1.9 13.5 2 4.1 0 9.5-0.5 12-1.3 2.5-0.7 5-1.4 5.5-1.5 0.6-0.2 3.7-1 7-1.8 3.3-0.8 9.8-2.7 14.5-4.1 4.7-1.5 9.2-2.8 10-3 0.8-0.3 3.1-0.8 5-1.3 1.9-0.5 4.1-1.1 4.8-1.5 0.9-0.5 1.1 0.2 1 2.7-0.2 1.9 0 3.8 0.4 4.3 0.4 0.4 0.5-16.3 0.1-37.2-0.3-20.9-0.6-38.1-0.7-38.3 0-0.2-10.9 2.7-24.1 6.4-13.2 3.7-26.5 7-29.5 7.4-3 0.4-8.2 0.4-11.5-0.1-3.3-0.4-8-1.5-10.5-2.4-2.5-0.9-6.3-2.7-8.5-3.9-2.2-1.3-6.5-5-9.6-8.2-3.1-3.3-6.5-7.7-7.6-9.9-1.2-2.2-3-7.1-4.2-11-1.5-4.9-2.3-10.5-2.6-18.8-0.2-6.5-0.8-12-1.3-12.3-0.5-0.2-1.3 1.2-1.8 3.3zm821.6 61.6c0 6.4 0.3 11.7 0.8 11.7 0.4 0 0.6-5.1 0.4-11.3-0.2-6.1-0.6-11.4-0.8-11.7-0.3-0.3-0.4 4.8-0.4 11.3zm0.6 35.9c0.2 4 0.6 7.5 0.9 7.8 0.3 0.3 0.6-2.7 0.6-6.7 0.1-3.9-0.3-7.5-0.9-7.8-0.6-0.4-0.9 2-0.6 6.7zm325.1 16.1c-2.7 12.2-4.9 19.4-7.5 24.7-2.3 4.9-5.6 9.4-9.2 13-3 3-8.2 6.9-11.5 8.7-3.3 1.8-9.2 3.9-13 4.7-6.2 1.4-11.2 1.4-44.5 0.1-20.6-0.8-40.2-2-43.5-2.6-3.3-0.6-8.2-2.1-11-3.3-2.7-1.3-7.1-3.9-9.7-5.9l-4.8-3.7c0 5.4-0.7 10-1.5 13.8-0.8 3.7-3.1 9.4-5.1 12.7-1.9 3.3-5.3 7.8-7.4 10-2.2 2.2-6.5 5.6-9.7 7.5-3.1 1.9-8.7 4.3-12.3 5.2-5.6 1.4-12.3 1.7-47.2 1.7-32.7 0.1-42.1-0.2-47.5-1.4-3.8-0.8-9.5-3.1-12.8-5.1-3.3-1.9-7.8-5.3-10-7.4-2.2-2.2-5.6-6.5-7.5-9.7-1.9-3.1-4.3-8.7-5.2-12.3-0.9-3.6-1.7-8.6-1.7-11.2-0.1-2.7-0.4-5-0.8-5.2-0.5-0.2-0.7 4.6-0.6 10.8 0.2 6.1 0.4 23.5 0.7 38.6 0.3 20.1 0.9 29.4 2 34.5 0.9 3.9 3.2 9.7 5.2 13 1.9 3.3 5.3 7.8 7.4 10 2.2 2.2 6.5 5.6 9.7 7.5 3.1 1.9 8.7 4.3 12.3 5.2 5.6 1.5 12.3 1.7 48 1.7 35.7 0 42.4-0.2 48-1.7 3.6-0.9 9.2-3.3 12.3-5.2 3.2-1.9 7.5-5.3 9.7-7.5 2.1-2.2 5.5-6.7 7.4-10 2-3.3 4.3-9 5.1-12.7 0.8-3.8 1.5-8.4 1.5-10.3v-3.5c7.4 5.6 11.2 8.1 13.3 9.1 2 1.1 6.5 2.5 10 3.3 3.4 0.8 13.4 1.7 22.2 2 8.8 0.4 22.3 0.9 30 1.2 7.7 0.2 17.8 0.7 22.5 0.9 5.3 0.2 11.2-0.2 15.5-1.1 3.9-0.8 9.7-2.9 13-4.7 3.3-1.8 8.5-5.7 11.5-8.7 3.6-3.6 6.9-8.1 9.2-13 2-4.1 3.9-8.9 4.2-10.5 0.3-1.6 1.7-8.2 3.1-14.5 1.4-6.3 2.7-12.3 2.8-13.2 0.1-0.9 0.8-2.3 1.6-3 1-0.9 1.2-1 0.7 0-0.3 0.6-0.2 2.4 0.3 4 0.5 1.5 1.7 5.4 2.6 8.7 1 3.3 2.6 7.6 3.5 9.5 1 1.9 2.4 4.2 3.1 5 0.8 0.8 3.3 3.8 5.5 6.5 2.3 2.8 7 6.7 10.5 8.7 3.6 2.2 9.5 4.5 13.4 5.4 5 1.1 9.1 1.3 14.5 0.8 4.1-0.3 10-1.4 13-2.4 3-1 7.8-2.6 10.5-3.7 2.8-1.1 10-3.9 16-6.2 6.1-2.3 13.7-5.3 17-6.6 3.3-1.3 7.4-2.8 9-3.3 1.7-0.6 8.4-3.1 15-5.7 6.6-2.5 14.3-5.9 17-7.5 2.8-1.6 7.3-5.3 10.1-8.2 2.8-2.9 6-6.9 7.2-8.8 1.1-1.9 3-6.4 4.2-10 1.4-4.2 2.1-9.2 2.2-14 0-4.1-0.5-9.5-1.2-12-0.7-2.5-1.1-4.5-1-4.5 0.1 0-1-3.1-2.3-7-1.4-3.9-3.1-9.1-3.9-11.8l-1.3-4.8c-7.7 7.6-12 11-14.5 12.4-2.5 1.5-9.9 4.7-16.5 7.2-6.6 2.5-19 7.2-27.5 10.5-8.5 3.2-21.6 8.2-29 11-9.4 3.6-16.1 5.5-22 6.2-7 0.9-9.8 0.7-16-0.6-4.6-1-9.9-3-13.9-5.4-3.8-2.2-8.5-6.2-11.9-10.2-3-3.6-6.6-8.7-7.8-11.5-1.3-2.7-3.2-8.6-4.4-13-1.1-4.4-2.1-8.1-2.3-8.2-0.1-0.1-1.9 7.5-4 17zm-324.7 5c0 7 0.3 12.9 0.8 13.1 0.4 0.2 0.5-5.3 0.4-12.2-0.2-7-0.6-12.9-0.8-13.2-0.3-0.3-0.4 5.2-0.4 12.3zm-711.1 19.2c0 6.6 0.4 11.6 0.8 11.2 0.5-0.5 0.6-5.7 0.5-11.5-0.2-5.9-0.6-10.9-0.8-11.2-0.3-0.3-0.5 4.9-0.5 11.5zm0.5 36.4c0.1 3.8 0.5 7.3 0.9 7.8 0.4 0.4 0.7-2.7 0.7-6.9 0-4.3-0.4-7.8-0.8-7.8-0.5 0-0.8 3.1-0.8 6.9zm0.5 20.6c0 6.6 0.4 11.6 0.8 11.2 0.5-0.5 0.6-5.7 0.5-11.5-0.2-5.9-0.6-10.9-0.8-11.2-0.3-0.3-0.5 4.9-0.5 11.5zm679.5-6.8c-1.6 2.6-5.1 6.6-7.9 9.1-2.7 2.4-7.7 5.6-11 7.2-3.3 1.5-9.8 3.5-14.5 4.4-4.7 0.8-21.5 3.7-37.5 6.3-20.5 3.3-32.1 4.7-39.5 4.7-7.2 0.1-12.2-0.4-16-1.6-3-0.9-8.5-3.6-12.1-6l-6.6-4.3c-7.6 5.8-12.9 8.6-16.8 10-5.5 2.1-13.7 3.5-39 6.6-17.6 2.1-35.3 4.3-39.2 4.9-4.5 0.6-8.8 1.9-11 3.3-2.1 1.3-6.3 3.3-9.3 4.4-3 1.2-9.8 2.6-15 3.2-5.2 0.6-15.6 1.8-23 2.6-7.4 0.8-30.6 3.3-51.5 5.4-20.9 2.2-55.8 5.9-77.5 8.2-34 3.6-40.4 4-46 3.1-3.6-0.6-8.7-2-11.5-3.2-2.7-1.2-7.4-3.9-10.2-6.1-2.9-2.1-7.3-6.7-9.8-10.1l-4.6-6.3c0.1 5.8-0.6 10.5-1.4 14.3-0.8 3.7-3.1 9.4-5.1 12.7-1.9 3.3-5.3 7.8-7.4 10-2.2 2.2-6.5 5.6-9.7 7.5-3.1 1.9-8.7 4.3-12.3 5.2-5.6 1.4-12.3 1.7-47.2 1.7-32.7 0.1-42.1-0.2-47.5-1.4-3.8-0.8-9.5-3.1-12.8-5.1-3.3-1.9-7.5-5-9.4-6.7-1.8-1.8-5.1-5.9-7.3-9.2-2.1-3.3-4.7-8.8-5.8-12.2-1.1-3.5-1.8-7.2-1.5-8.3 0.3-1.2 0-2-0.7-2-1 0-1.1 7.3-0.5 35 0.5 25 1.1 36.9 2.2 41.8 0.8 3.7 3.1 9.4 5.1 12.7 1.9 3.3 5.3 7.8 7.4 10 2.2 2.2 6.5 5.6 9.7 7.5 3.1 1.9 8.7 4.3 12.3 5.2 5.6 1.5 12.3 1.7 48 1.7 35.7 0 42.4-0.2 48-1.7 3.6-0.9 9.2-3.3 12.3-5.2 3.2-1.9 7.5-5.3 9.7-7.5 2.1-2.2 5.5-6.7 7.4-10 2-3.3 4.3-9 5.1-12.7 0.8-3.8 1.5-8.5 1.5-10.5l-0.1-3.8c7.1 9.7 11.5 14.3 14.4 16.4 2.8 2.2 7.5 4.9 10.2 6.1 2.8 1.2 7.9 2.6 11.5 3.2 5.6 0.9 12 0.5 46-3.1 21.7-2.3 50.1-5.3 63-6.7 12.9-1.4 26-2.7 29-3 3-0.2 6.9-0.6 8.5-0.9 1.7-0.3 5.7-0.7 9-1 3.3-0.3 8-0.8 10.5-1.1 2.5-0.3 6.1-0.7 8-0.9 1.9-0.2 8.5-0.9 14.5-1.5 6.1-0.6 12.5-1.3 14.3-1.5 1.7-0.3 3.4-0.5 3.7-0.5 0.3 0 3.1-1 6.3-2.2 3.1-1.1 7.3-3.1 9.2-4.3 1.9-1.2 4.6-2.5 6-2.8 1.4-0.4 5.2-0.9 8.5-1.3 3.3-0.3 20-2.3 37-4.5 24.1-3 32.6-4.4 38-6.4 3.9-1.4 8.6-3.8 10.5-5.2 1.9-1.4 4-3.2 4.5-4 0.8-1 2.4-0.4 8 3.3 3.9 2.5 9.3 5.2 12 6 2.8 0.8 8.2 1.8 12 2.1 4.3 0.3 11.1-0.1 17.5-1.1 5.8-0.9 12.1-1.9 14-2.2 1.9-0.3 6-0.9 9-1.4 3-0.5 7.3-1.2 9.5-1.5 2.2-0.3 6.5-1 9.5-1.5 3-0.5 6.9-1.1 8.5-1.4 1.7-0.2 5-0.7 7.5-1.1 2.5-0.4 7.9-1.6 12-2.7 4.1-1 9.5-3.1 12-4.5 2.5-1.5 6.8-5 9.6-7.7 2.7-2.8 6.2-7.1 7.6-9.6 1.4-2.5 3.3-6.5 4.1-9 0.9-2.5 1.8-7 2.2-10 0.4-3.2-0.3-14.5-1.6-27.5-1.2-12.1-2.5-22.5-2.8-23.2-0.5-0.8-1.8 0.4-3.7 3.4zm-679 43.2c0.1 3.8 0.5 7.3 0.9 7.8 0.4 0.4 0.7-2.7 0.7-6.9 0-4.3-0.4-7.8-0.8-7.8-0.5 0-0.8 3.1-0.8 6.9zm462.8 190.7c-0.4 1-0.1 1.9 0.8 2.5 0.8 0.5 1.8 0.9 2.3 0.9 0.4 0 1-0.7 1.5-1.6 0.4-1 0.1-1.9-0.8-2.5-0.8-0.5-1.8-0.9-2.3-0.9-0.4 0-1.1 0.7-1.5 1.6zm328.8 16.9c0 17.8 0.1 18.5 2 18.5 1.9 0 2-0.7 2-18.5 0-17.8-0.1-18.5-2-18.5-1.9 0-2 0.7-2 18.5zm-637-15c0 1.1 1.1 1.5 4 1.5h4c0 29.6 0.2 32 1.5 32 1.3 0 1.5-2.6 1.5-17.5v-17.5c-9.7 0-11 0.3-11 1.5zm68.1 16.1l-0.1 17.9c17-1 22.5-1.8 23.9-2.6 1.4-0.8 3.5-2.3 4.8-3.4 1.3-1.1 2.9-3.8 3.5-6 0.5-2.2 1-4.9 1-6 0-1.1-0.5-3.9-1.1-6.2-0.9-3.5-2-4.9-5.8-7.5-4.5-2.9-5.6-3.2-15.4-3.6l-10.6-0.5zm765.9 3.9c0 7.4 0.3 13.5 0.7 13.5 0.4 0 1-3.8 1.3-8.4 0.3-6.4 0.9-9.1 2.6-11.3 1.4-1.9 3.1-2.9 5.2-3 2-0.2 3.2-0.8 3.2-1.8 0-1-1.1-1.5-3.1-1.5-1.9 0-3.8 0.8-4.8 2-0.9 1.2-2 2.1-2.4 2-0.4 0-0.7-1.1-0.7-2.5 0-1.4-0.5-2.5-1-2.5-0.7 0-1 5.2-1 13.5zm-723.8-11.1c-1.2 0.6-2.3 1.7-2.3 2.4 0.1 0.6 0.3 1.2 0.6 1.2 0.2 0 1.7-0.5 3.2-1.1 1.5-0.6 4.3-1.2 6.2-1.5 2.9-0.3 3.8 0.1 5.8 2.6 1.2 1.7 2.3 3.9 2.3 5 0 1.8-0.7 2-7.8 2-6.1-0.1-8.1 0.3-9.5 1.7-0.9 1-1.7 3.3-1.7 5.1 0 2.4 0.7 3.7 2.7 5.2 1.7 1.3 4.3 2.1 6.5 2 2.1 0 4.9-0.7 6.3-1.5 2.2-1.3 2.5-1.3 2.5 0 0 0.8 0.8 1.5 2 1.5 1.8 0 1.9-0.6 1.8-9.7-0.1-5.4-0.6-10.7-1.2-11.8-0.5-1.1-1.7-2.5-2.6-3.2-0.8-0.7-4-1.2-7-1.1-3.1 0-6.6 0.6-7.8 1.2zm27.8 11.6c0 12.3 0.1 13 2 13 1.8 0 2-0.7 2-8 0-4.4 0.5-9 1.1-10.2 0.7-1.3 1.9-2.8 2.8-3.5 0.8-0.7 2.3-1.2 3.3-1.3 1 0 1.8-0.7 1.8-1.5 0-0.8-0.8-1.5-1.8-1.5-1 0-3 0.9-4.5 2-2.7 2-2.7 2-2.7 0q0-2-2-2c-1.9 0-2 0.7-2 13zm34 4.5c0 14.9 0.2 17.5 1.5 17.5 1.1 0 1.5-1.3 1.5-6 0-3.3 0.3-6 0.7-6 0.4 0.1 1.9 0.7 3.3 1.5 1.3 0.8 4.1 1.5 6.2 1.5 2.1 0 5.1-0.8 6.7-1.7 1.5-1 3.6-3 4.5-4.5 0.8-1.6 1.6-4.6 1.6-6.8 0-2.2-0.7-5.3-1.5-7-0.9-1.6-2.9-3.7-4.5-4.5-1.7-0.8-4.8-1.5-7-1.5-2.4 0-5.3 0.8-7 2l-3 2c0-3.1-0.7-4-1.5-4-1.3 0-1.5 2.6-1.5 17.5zm37-16.1c-1.4 0.7-3.4 3.1-4.4 5.2-1.1 2.4-1.7 5.3-1.5 7.4 0.3 1.9 1.2 4.7 2.1 6.3 1 1.5 3.2 3.4 5 4.3 2.4 1.2 4.6 1.5 8.3 1 2.7-0.3 5.8-1.4 6.7-2.4 1-0.9 1.5-2 1-2.5-0.4-0.4-2.1-0.1-3.7 0.8-1.7 0.8-4.7 1.5-6.8 1.5-3 0-4.3-0.6-6.7-3.5-1.7-1.9-2.8-3.9-2.5-4.5 0.2-0.6 5.1-1 11.5-1 6 0 11-0.3 10.9-0.7 0-0.5-0.4-2.5-1-4.5-0.5-2.1-2.3-4.9-3.9-6.3-2.3-1.9-4.2-2.5-7.8-2.5-2.6 0.1-5.9 0.7-7.2 1.4zm27 11.6c0 9.7 0.3 13 1.2 13 0.9 0 1.4-2.7 1.9-8.7 0.3-4.9 1.2-9.8 2-11 0.8-1.4 2.7-2.5 4.6-2.8 2-0.3 3.3-1.1 3.3-2 0-0.9-1-1.5-2.3-1.5-1.2 0-3.3 0.7-4.5 1.5-2 1.3-2.3 1.3-2.7 0-0.3-0.8-1.2-1.5-2-1.5-1.3 0-1.5 2.1-1.5 13zm19 0c0 12.3 0.1 13 2 13 1.8 0 2-0.7 2-8 0-4.4 0.4-9.1 1-10.5 0.5-1.4 2.4-3.2 4.2-4.1 2.8-1.3 3.7-1.4 6.1-0.2 1.6 0.7 3.4 2.2 4 3.3 0.5 1.1 0.9 5.9 0.8 10.8-0.1 8.1 0 8.7 1.9 8.7 1.8 0 2-0.7 2-8 0-4.4 0.4-9.1 1-10.5 0.5-1.4 2.4-3.2 4.2-4.1 2.8-1.3 3.7-1.4 6.1-0.2 1.6 0.7 3.5 2.5 4.3 4.1 0.8 1.6 1.4 6 1.4 10.7 0 4.7 0.4 8 1 8 0.5 0 1-3.8 1.1-9.2 0-5.1 0-10-0.1-10.8-0.1-0.8-1.3-2.5-2.6-3.7-1.8-1.7-3.7-2.3-6.9-2.3-2.9 0-5.7 0.7-7.5 2l-3 2c-4.4-3.2-7-4-9.3-4-2.1 0-4.9 0.6-6.3 1.3-1.4 0.6-2.5 1.5-2.5 2 0 0.4-0.4 0.7-0.9 0.7-0.6 0-1-0.9-1-2 0-1.1-0.7-2-1.5-2-1.3 0-1.5 2.1-1.5 13zm53 0c0 12.3 0.1 13 2 13 1.9 0 2-0.7 2-13 0-12.3-0.1-13-2-13-1.9 0-2 0.7-2 13zm13.8-10.6q-2.3 2.4-2.1 5.3c0.1 1.5 0.8 3.4 1.5 4.1 0.7 0.6 2.8 1.5 4.8 1.9 1.9 0.3 4.1 0.8 5 1 0.8 0.1 2.5 1 3.7 1.8 1.2 0.8 2.3 1.8 2.3 2.3 0 0.4-0.9 1.6-2.1 2.7-1.8 1.7-2.9 1.9-7.3 1.3-2.8-0.3-5.9-0.9-6.9-1.2-1-0.4-1.8-0.1-1.8 0.7 0 0.6 1.5 1.8 3.3 2.6 1.9 0.9 5.3 1.3 8.3 1 3.1-0.2 5.7-1.1 6.8-2.1 0.9-1 1.7-3.4 1.7-5.3 0-2.7-0.6-3.8-2.5-5-1.4-0.8-3.1-1.5-3.8-1.5-0.7 0-2.9-0.5-5-1-2.1-0.5-4.2-1.8-4.7-2.7-0.5-1.2-0.5-2.4 0.3-3.6 0.8-1.2 2.5-1.8 5.2-1.9 2.2-0.1 5.2 0.2 6.7 0.5 1.6 0.4 3 0.3 3.3-0.3 0.2-0.5-0.4-1.4-1.5-2-1.1-0.5-4.5-1-7.4-1-4.4 0-5.8 0.5-7.8 2.4zm27.9-0.9c-1.5 0.9-3.4 3.1-4.2 5-1 2.3-1.4 5.3-1 8.3 0.3 3.3 1.3 5.5 3.2 7.5 2 2 4.1 2.9 7.8 3.3 3.9 0.5 5.7 0.2 8.5-1.4 1.9-1.1 4.1-3.5 4.9-5.3 0.8-1.9 1.4-4.7 1.3-6.4 0-1.6-0.6-4.2-1.2-5.7-0.6-1.6-2.5-3.7-4.3-4.8-2-1.2-4.9-2-7.7-1.9-2.5 0-5.8 0.6-7.3 1.4zm41.3 16c0 16.8 0 17.5 2 17.5 1.8 0 1.9-0.6 1.7-6.9l-0.2-6.9c4.6 4.1 6.7 4.8 9.5 4.8 2.2 0 5-0.6 6.2-1.2 1.2-0.7 3-2.2 4-3.3 1-1.1 2.2-3.3 2.7-5 0.5-1.9 0.4-4.7-0.3-7.4-0.7-2.9-2.2-5.2-4.1-6.7-2.2-1.7-4.4-2.3-7.5-2.3-2.5 0-5.7 0.6-7 1.4-1.4 0.8-2.9 1.5-3.3 1.5-0.4 0-0.7-0.7-0.7-1.5 0-0.8-0.7-1.5-1.5-1.5-1.3 0-1.5 2.6-1.5 17.5zm35-15.9c-2.4 1-3.2 1.8-2.5 2.5 0.6 0.7 2.2 0.5 5-0.6 2.2-0.8 4.7-1.5 5.7-1.5 1 0 2.9 1.1 4.3 2.5 1.3 1.4 2.5 3.6 2.5 5 0 2.4-0.3 2.5-6.3 2.4-3.4-0.1-7.3 0.3-8.5 1-1.2 0.6-2.7 2-3.2 3.1-0.6 1.1-0.7 3.2-0.3 4.7 0.4 1.4 1.7 3.2 2.8 4 1.1 0.7 3.6 1.3 5.7 1.3 2.1 0 5.1-0.7 6.8-1.5 2.6-1.3 3-1.3 3 0 0 0.8 0.8 1.5 2 1.5 1.8 0 1.9-0.6 1.9-8.2 0-4.6-0.6-9.9-1.3-11.8-0.6-1.9-2.3-4-3.6-4.7-1.4-0.7-4.3-1.3-6.5-1.2-2.2 0-5.6 0.7-7.5 1.5zm28 11.4c0 10.9 0.2 13 1.5 13 1.2 0 1.5-1.5 1.5-7.7 0-6 0.4-8.5 2-11 1.2-2 3.1-3.6 5-4 1.6-0.5 3-1.4 3-2 0-0.7-1.1-1.3-2.3-1.3-1.2 0-3.3 0.7-4.5 1.5-2 1.3-2.2 1.3-2.2 0 0-0.8-0.9-1.5-2-1.5-1.9 0-2 0.7-2 13zm21.4-12c-1.2 0.5-2.4 1.3-2.8 1.9-0.3 0.6-0.1 1.4 0.6 1.7 0.7 0.3 2.6-0.1 4.3-0.9 1.6-0.9 4.3-1.4 6-1.2 1.6 0.2 3.7 1.4 4.7 2.7 1 1.3 1.8 3.3 1.8 4.6 0 2.1-0.4 2.2-6.9 2-4.9-0.2-7.3 0.1-8.6 1.2-1 0.8-2.2 2.4-2.8 3.5-0.6 1.4-0.5 2.9 0.4 4.8 0.9 1.9 2.6 3.2 4.9 3.9 1.9 0.6 5.1 0.8 7.2 0.4 2.1-0.3 4-1.3 4.3-2.1 0.2-0.8 0.9-1.5 1.5-1.5 0.5 0 1 0.9 1 2 0 1.1 0.6 2 1.5 2 1.2 0 1.4-1.7 1.2-10.6-0.2-10.1-0.4-10.7-3-13-2.2-1.9-3.8-2.4-8-2.3-2.9 0-6.2 0.4-7.3 0.9zm40.6 8.3c0.2 5 0.7 10.1 1.3 11.2 0.5 1.1 1.6 2.6 2.3 3.3 0.8 0.6 3.3 1.5 5.6 1.8 3 0.5 5.2 0.2 7.5-1 2.8-1.4 3.3-1.4 3.3-0.1 0 0.8 0.8 1.5 2 1.5 1.9 0 2-0.7 2-13 0-11.9-0.2-13-1.9-13-1.6 0-1.8 1-1.9 8.8-0.1 7-0.4 9.2-2 11.2-1.5 1.9-3 2.6-6.6 2.8-4.1 0.2-4.8-0.1-6.3-2.5-1.3-2.2-1.7-4.8-1.5-11.5 0.2-8.3 0.1-8.8-1.9-8.8-2 0-2.1 0.5-1.9 9.3zm33.8-6.9q-2.3 2.4-2.1 5.3c0.1 1.5 0.8 3.4 1.5 4.1 0.7 0.6 2.8 1.5 4.8 1.9 1.9 0.3 4.1 0.8 5 1 0.8 0.1 2.5 1 3.7 1.8 1.2 0.8 2.3 1.8 2.3 2.3 0 0.4-0.9 1.6-2.1 2.7-1.8 1.7-2.9 1.9-7.3 1.3-2.8-0.3-5.9-0.9-6.9-1.2-1-0.4-1.8-0.1-1.8 0.7 0 0.6 1.5 1.8 3.3 2.6 1.9 0.9 5.3 1.3 8.3 1 3.1-0.2 5.7-1.1 6.8-2.1 0.9-1 1.7-3.4 1.7-5.3 0-2.7-0.6-3.8-2.5-5-1.4-0.8-3.1-1.5-3.8-1.5-0.7 0-2.9-0.5-5-1-2.1-0.5-4.2-1.8-4.7-2.7-0.5-1.2-0.5-2.4 0.3-3.6 0.8-1.2 2.5-1.8 5.2-1.9 2.2-0.1 5.2 0.2 6.7 0.5 1.6 0.4 3 0.3 3.3-0.3 0.2-0.5-0.4-1.4-1.5-2-1.1-0.5-4.5-1-7.4-1-4.4 0-5.8 0.5-7.8 2.4zm27.7-1.7c-1.1 0.3-2.6 1-3.3 1.7-0.7 0.6-1 1.4-0.5 1.9 0.4 0.4 2.6 0 4.8-0.9 3.5-1.5 4.4-1.5 7.4-0.3 1.9 0.8 3.7 2.5 4.2 3.9 0.5 1.4 0.7 3.1 0.4 3.8q-0.5 1.2-6.8 1.1c-3.4-0.1-7.3 0.3-8.5 1-1.2 0.6-2.3 1.4-2.3 1.9-0.1 0.4-0.2 2.1-0.3 3.7q-0.2 3 2.1 5.3c1.6 1.5 3.5 2.2 6.3 2.2 2.2 0 5.2-0.6 6.6-1.2 2.2-1 2.8-1 3 0 0.2 0.6 1 1.2 1.9 1.2 1.2 0 1.5-1.8 1.5-10.5 0-9.9-0.2-10.6-2.5-13-2.1-2-3.5-2.5-7.3-2.4-2.6 0.1-5.6 0.4-6.7 0.6zm26.5 12.3c0 12.3 0.1 13 2 13 1.8 0 2-0.7 2.2-10 0.2-7.6 0.6-10.3 1.8-11.1 0.8-0.5 2.7-1.3 4.2-1.7 1.6-0.4 2.8-1.3 2.8-1.9 0-0.7-1-1.3-2.1-1.3-1.2 0-3.5 1.2-5.1 2.8-1.7 1.5-2.9 2.3-2.8 1.7 0.1-0.5 0.1-1.8 0.1-2.7-0.1-1-0.8-1.8-1.6-1.8-1.3 0-1.5 2.1-1.5 13zm49.3-12.3c-1.2 0.3-2.5 1.1-3 1.9-0.5 0.8-0.6 1.6-0.3 1.9 0.2 0.3 2-0.1 4-1 1.9-0.8 4.6-1.2 6-0.9 1.3 0.2 3.5 1.1 4.8 2 1.8 1.1 2.3 2.2 2 4.2-0.3 2.6-0.6 2.7-6.8 2.8-3.6 0.1-7.6 0.7-8.8 1.3-1.2 0.6-2.3 1.9-2.4 2.9-0.1 0.9-0.1 2.8 0 4.2 0 1.4 1.1 3.3 2.4 4.3 1.2 1 3.7 1.8 5.5 1.8 1.8-0.1 4.5-0.6 6-1.2 1.5-0.6 3.1-1.6 3.5-2.2 0.4-0.7 0.7-0.3 0.7 1.1 0 1.3 0.7 2.2 1.6 2.2 1.2 0 1.4-1.8 1.4-10.2 0-6.5-0.5-10.9-1.2-11.9-0.7-0.9-2.3-2.1-3.5-2.7-1.2-0.7-3.9-1.1-6-1.1-2.1 0.1-4.7 0.4-5.9 0.6zm44.7 0c-0.9 0.3-2.7 1.8-4.1 3.2-1.4 1.4-2.9 4.3-3.3 6.4-0.5 2.7-0.1 4.9 1.4 8.2 1.4 3.4 2.9 4.9 5.7 6.2 2.6 1.1 5.1 1.4 8.3 1 2.4-0.3 5.2-1.4 6.2-2.4 1.4-1.4 1.5-2 0.5-3.1-0.7-0.7-1.5-0.9-1.7-0.4-0.3 0.5-1.6 1.4-2.8 2.1-1.2 0.6-3.6 1.1-5.2 1.1-1.9 0-4-0.9-5.5-2.5-1.4-1.4-2.8-3.7-3.2-5.2-0.3-1.6-0.2-4.1 0.3-5.7 0.5-1.6 2-3.7 3.4-4.8 1.3-1 3.8-2 5.5-2.2 1.9-0.2 3.9 0.4 5.8 1.8q2.8 2.1 3.8 1.1 1-1-1.8-3.3c-2.1-1.7-4-2.2-7.3-2.1-2.5 0-5.2 0.3-6 0.6zm24 0.5c-1.4 0.6-2.4 1.5-2.3 2 0.2 0.4 0.7 1 1.3 1.3 0.5 0.3 1.5 0.1 2.2-0.4 0.7-0.5 2.8-1.1 4.8-1.4 1.9-0.3 4.5 0 5.8 0.6 1.2 0.7 2.5 2.3 2.8 3.7 0.3 1.4 0.7 3.1 0.9 3.8 0.3 0.9-1.3 1.2-6.5 1.1-6.1-0.2-7.3 0.1-9.5 2.2-1.4 1.3-2.6 3.4-2.6 4.7 0 1.2 1.3 3.3 2.8 4.7 2 1.9 3.8 2.6 6.8 2.5 2.2 0 5-0.7 6.2-1.5 2-1.3 2.3-1.3 2.8 0 0.2 0.8 1.1 1.5 2 1.5 1.2 0 1.4-1.8 1.2-11.1-0.2-10.5-0.4-11.2-2.7-13-1.9-1.5-4-1.9-8-1.9-3.1 0.1-6.7 0.6-8 1.2zm29 11.8c0 10.9 0.2 13 1.5 13 1.1 0 1.5-1.4 1.5-6.2 0-3.5 0.3-8 0.7-10.1 0.5-2.8 1.6-4.4 3.8-5.8 1.6-1 3.7-1.8 4.7-1.9 1 0 3 1.1 4.5 2.4 2.6 2.3 2.8 3 3 12 0.2 7.8 0.5 9.6 1.8 9.6 1.2 0 1.5-1.5 1.5-7.5 0-4.4 0.6-8.9 1.5-11 0.9-2.1 2.5-3.9 4.2-4.5 1.5-0.6 3.8-0.9 5-0.5 1.2 0.3 2.9 1.2 3.8 2 1.1 1.1 1.5 4 1.5 11.5 0 9.3 0.1 10 2 10 1.8 0 2-0.7 2-10 0-9.8-0.1-10.1-3-13-2.5-2.5-3.8-3-7.8-3-3.4 0-5.6 0.7-7.6 2.3l-2.9 2.2c-4.1-3.8-6-4.5-9-4.5-2.3 0-5.3 0.7-6.5 1.5-2 1.3-2.3 1.3-2.7 0-0.3-0.8-1.2-1.5-2-1.5-1.3 0-1.5 2.1-1.5 13zm53.8-11.1c-1.3 1.1-2 2.3-1.6 2.8 0.5 0.4 2.3 0.1 4-0.8 1.8-1 4.4-1.6 5.9-1.5 1.4 0 3.6 1 4.8 2.1 1.2 1.1 2.1 3.2 2.1 4.8 0 2.7-0.1 2.7-6.8 2.5-3.7-0.1-7.3 0.2-8 0.5-0.7 0.4-1.9 1.9-2.7 3.5-1.1 2.1-1.2 3.2-0.2 5.2 0.6 1.3 2.3 3 3.7 3.7 1.3 0.7 4.1 1.3 6.2 1.3 2.4 0 4.5-0.7 5.8-2 1.1-1.1 2.2-2 2.5-2 0.2 0 0.5 0.9 0.5 2 0 1.1 0.4 2 1 2 0.5 0 1-3.5 1.1-8.2 0.1-4.6 0.2-9.4 0.1-10.8-0.1-1.4-1.3-3.5-2.7-4.7-2-1.8-3.8-2.3-7.9-2.3-3.8 0-6.1 0.6-7.8 1.9zm49.3-0.1c-1.3 0.9-1.9 2.1-1.5 2.5 0.5 0.5 2.3 0.2 4.1-0.7 1.8-0.9 4.3-1.6 5.5-1.6 1.2 0 3.2 1 4.4 2.2 1.2 1.3 2.5 3.5 2.8 5.1l0.6 2.7c-13.7-0.5-15.2-0.2-17 1.5-1.2 1.2-2.1 3.2-2.1 5 0 1.8 0.9 3.8 2.1 5 1.3 1.2 4.1 2.2 6.8 2.4 3.8 0.4 5 0 6.7-1.7 1.1-1.2 2.3-2.2 2.7-2.2 0.4 0 0.8 0.9 0.8 2 0 1.1 0.4 2 1 2 0.5 0 1-3.7 1.1-8.7 0.1-4.9 0.1-9.7 0-10.8-0.1-1.1-1.3-3-2.7-4.2-1.9-1.8-3.7-2.3-7.7-2.3-3.5 0-6 0.6-7.6 1.8zm-820.1 10.7c0 1.2 1.3 1.5 6.5 1.5 5.1 0 6.5-0.3 6.5-1.5 0-1.2-1.4-1.5-6.5-1.5-5.2 0-6.5 0.3-6.5 1.5zm-31 55c0 15.8 0.2 18.5 1.5 18.5 1.2 0 1.5-2.7 1.5-18.5 0-15.8-0.3-18.5-1.5-18.5-1.3 0-1.5 2.7-1.5 18.5zm98.5-17c-0.3 0.8 0.1 2 1 2.5q1.5 1 3 0c0.8-0.5 1.2-1.7 1-2.5-0.3-0.8-1.4-1.5-2.5-1.5-1 0-2.1 0.7-2.5 1.5zm121.5 17c0 17.8 0 18.5 2 18.5 1.9 0 2-0.7 2-18.5 0-17.8-0.1-18.5-2-18.5-2 0-2 0.7-2 18.5zm465-11.5v7c-4.7-2.3-8.1-3-10.5-3-3.5 0-5.2 0.6-7.6 2.8-1.9 1.6-3.4 4.3-3.9 6.7-0.6 2.8-0.5 5.1 0.5 7.8 0.8 2 2 4.3 2.7 5 0.7 0.8 2.3 1.9 3.5 2.5 1.2 0.7 3.9 1.2 6 1.2 2.5 0.1 4.7-0.7 6.6-2.2l2.8-2.3c0.7 3.5 1.5 4.5 2.4 4.5 1.2 0 1.5-2.7 1.5-18.5 0-17.8-0.1-18.5-2-18.5-1.9 0-2 0.7-2 7zm174 11.5c0 15.8 0.2 18.5 1.5 18.5 1.2 0 1.5-2.7 1.5-18.5 0-15.8-0.3-18.5-1.5-18.5-1.3 0-1.5 2.7-1.5 18.5zm46.4-16.4c-1.2 1.3-1.8 3.3-1.7 5 0.2 2.5-0.2 3-2.8 3.7-1.6 0.4-3 1-3 1.5 0 0.4 1.4 0.7 3.1 0.7h3c0 19.3 0.3 24 1 24 0.6 0 1-4.7 1-12v-12c7.4 0.4 8.6 0.1 8.3-0.7-0.2-0.7-1.5-1.3-2.8-1.3-1.4 0-3.2-0.2-4-0.5-0.9-0.3-1.6-1.3-1.6-2.2 0-1 1.2-2.9 2.6-4.3 2.2-2.1 2.8-2.3 4.5-1.2 1.4 0.9 2.2 0.9 2.7 0.1 0.4-0.6 0.1-1.5-0.7-2-0.9-0.5-2.9-0.9-4.6-0.9-1.9 0-3.9 0.8-5 2.1zm-1040.3 1.3c-1.9 0.9-3.4 2.1-3.3 2.8 0 0.7 0.3 1.6 0.6 2.1 0.3 0.4 2-0.2 3.8-1.3 1.8-1.1 5-2 7.1-2 2.8 0 4.5 0.7 6.2 2.5 1.4 1.4 2.5 3.2 2.5 4 0 0.8-0.9 2.7-1.9 4.3-1.1 1.5-5.6 6.3-10 10.7-4.5 4.4-8.2 8.6-8.2 9.3 0 0.9 3.2 1.2 12.6 1.2 10.4 0 12.5-0.2 12.5-1.5 0-1.2-1.7-1.5-9-1.5-5 0-9.1-0.3-9.1-0.7 0-0.5 2.5-3.3 5.6-6.3 3.1-3 6.6-6.8 7.7-8.5 1.2-1.6 2.3-4.6 2.4-6.5 0.1-2.3-0.6-4.5-2-6.4-1.9-2.5-2.9-2.9-8.1-3.2-3.9-0.3-7.3 0.1-9.4 1zm76.6 0.1c-1.5 0.9-3.1 2.3-3.6 3.3-0.5 0.9-0.8 3.3-0.6 5.2 0.2 2.1 1.2 4.3 2.6 5.6 1.3 1.1 4.8 2.6 7.9 3.3 3 0.7 6.5 2 7.7 2.7 1.5 1 2.3 2.4 2.3 4.4q0 3-2.3 4.5c-1.2 0.8-4.2 1.5-6.5 1.5-2.3 0-5.8-0.8-7.7-1.7-2.7-1.4-3.8-1.5-4.8-0.6-1 0.9-0.6 1.5 1.8 2.9 1.6 1 5.2 2 8 2.3 2.7 0.2 6.1 0.1 7.5-0.2 1.3-0.3 3.7-1.8 5.2-3.4 1.9-1.8 2.8-3.8 2.8-5.8 0-1.8-0.9-3.9-2.3-5.2-1.2-1.2-5.2-2.9-8.7-3.9-3.9-1-7.5-2.6-8.8-4-1.2-1.3-2.2-2.8-2.2-3.4 0-0.5 1.2-2.2 2.7-3.7 2.5-2.3 3.3-2.6 7.8-2 2.7 0.3 6 0.8 7.2 1.1 1.6 0.4 2.3 0.2 2.3-0.9 0-0.9-1.6-1.9-3.8-2.5-2.1-0.5-5.5-1-7.7-0.9-2.2 0-5.3 0.6-6.8 1.4zm537.3 4.5c0 2.3-0.5 3-2 3-1.1 0-2 0.5-2 1 0 0.6 0.9 1 2 1 1.8 0 2 0.8 2.2 9.9 0.2 8.3 0.6 10.3 2.3 12.1 1.5 1.6 2.9 2.1 5.9 1.8 2.1-0.2 4-0.9 4.2-1.5 0.2-0.9-0.8-1.3-2.9-1.3-1.8 0-3.8-0.5-4.5-1.2q-1.3-1.3-1.3-10.5l0.1-9.3c6.2 0 8-0.4 8-1 0-0.5-1.8-1-4-1-3.8 0-4-0.2-4-3 0-2.3-0.5-3-2-3-1.6 0-2 0.7-2 3zm264 0c0 2.3-0.5 3-2 3-1.1 0-2.2 0.6-2.4 1.3-0.2 0.7 0.5 1.1 2 1 2.3-0.3 2.4-0.2 2.4 9.2 0 5.2 0.4 10.4 1 11.5 0.6 1.3 2.4 2.2 4.7 2.6 2.1 0.3 4.5 0.2 5.5-0.2 1.2-0.6 1.4-1.3 0.8-2.4-0.7-1.1-1.2-1.2-2.2-0.4-0.9 0.8-2.1 0.9-3.6 0.3-2.1-0.8-2.2-1.5-2.2-10.9v-10c6.2 0 8-0.4 8-1 0-0.5-1.8-1-4-1-3.8 0-4-0.2-4-3 0-2.3-0.5-3-2-3-1.6 0-2 0.7-2 3zm67 0c0 2.3-0.5 3-2 3-1.1 0-2.2 0.6-2.4 1.3-0.2 0.7 0.5 1.1 2 1 2.3-0.3 2.4-0.2 2.4 9.7 0 8.7 0.2 10.3 2 12 1.1 1.1 3.3 2 5 2 1.6 0 3.6-0.2 4.5-0.5 0.8-0.3 1.2-1.2 1-2-0.4-1-1.1-1.2-2.3-0.6-1 0.4-2.4 0.6-3.2 0.4-0.9-0.3-2-1.1-2.5-1.7-0.6-0.7-0.9-5.4-0.8-10.4l0.3-9.2c6.2 0 8-0.4 8-1 0-0.5-1.8-1-4-1-3.8 0-4-0.2-4-3 0-2.3-0.5-3-2-3-1.6 0-2 0.7-2 3zm-710 15.5c0 8.3 0.3 13.5 1 13.5 0.6 0 1-5.2 1-13.5 0-8.3-0.4-13.5-1-13.5-0.7 0-1 5.2-1 13.5zm-127.3-11c-1.5 0.9-3.4 2.7-4.1 4.3-0.8 1.5-1.3 5.1-1.3 7.9 0.1 4.4 0.6 5.8 3.2 8.4 2.3 2.4 4.1 3.2 8 3.6 2.7 0.3 6.2 0 7.7-0.6 1.5-0.6 3.1-1.8 3.5-2.6 0.4-0.8 0.5-1.7 0.3-2-0.3-0.3-2.1 0.3-4 1.2-2.4 1.1-4.8 1.4-7.5 1-2.6-0.4-4.7-1.5-5.8-2.9-0.9-1.3-1.7-3.1-1.7-4 0-1.6 1.1-1.8 11-1.8h11c-1.7-6.7-3.3-9.6-5.1-11.2-2.4-2.3-3.9-2.8-7.7-2.8-2.6 0.1-6 0.7-7.5 1.5zm41.8 1.9c-1.9 1.9-3.5 4.6-3.6 6.3-0.1 1.5-0.1 3.9 0 5.3 0.1 1.4 0.8 3.6 1.6 5 0.7 1.4 2.5 3.2 4.1 4.1 1.6 0.9 4.8 1.6 7.1 1.7 2.5 0.1 5.5-0.5 7.3-1.5 1.6-1 3-2.1 3-2.5 0-0.5-0.5-1-1-1.3-0.6-0.3-2.1 0.2-3.3 1-1.2 0.8-3.5 1.5-5 1.5-1.5 0-3.9-0.4-5.2-1-1.4-0.5-3.2-2.3-4-4-0.9-1.6-1.5-3.2-1.5-3.5 0-0.3 4.9-0.5 11-0.5 10.3 0 11-0.1 11-2 0-1.1-0.7-3.6-1.5-5.5-0.9-2-2.8-4.1-4.5-5-1.7-0.8-5.1-1.5-7.6-1.5-4 0-5.1 0.5-7.9 3.4zm32.2-1.9c-1.5 0.9-3.4 3-4.3 4.8-0.8 1.7-1.5 5.1-1.5 7.5 0 3.3 0.7 4.9 3.3 7.8 2.8 3 4.1 3.6 8.8 4 4.8 0.5 5.8 0.2 8.5-1.9 1.6-1.4 2.6-2.9 2.1-3.4-0.4-0.4-2.1 0-3.7 1-1.6 0.9-4.2 1.7-5.7 1.7-1.5 0-4.1-0.8-5.7-1.8-2.3-1.3-3.2-2.9-3.7-5.8-0.5-2.4-0.3-5 0.5-6.9 0.7-1.6 2.4-3.8 3.7-4.7 1.4-1 3.4-1.8 4.5-1.8 1.1 0 3.4 0.9 5.2 2 1.8 1.1 3.7 1.8 4.3 1.5 0.5-0.3 1-0.9 1-1.5 0-0.5-1.4-1.7-3-2.5-1.7-0.8-5-1.5-7.3-1.5-2.3 0.1-5.5 0.7-7 1.5zm28.4-0.2c-1.4 0.7-3.4 2.5-4.5 4-1.5 2-2.1 4.3-2.1 7.5 0.1 2.9 0.8 5.8 2 7.6 1.1 1.5 3.5 3.5 5.5 4.4 2.4 1 4.9 1.3 8 0.9 2.4-0.3 5.2-1.4 6.2-2.4 1.2-1.3 1.4-2.2 0.8-3-0.8-1-1.6-0.8-3.8 0.7-1.5 1.2-4.2 2.1-6 2-2.1 0-4.1-0.9-5.7-2.5-1.4-1.4-2.8-3.7-3.2-5.2-0.3-1.6-0.1-4.4 0.5-6.3 0.6-2.2 2-4 3.8-4.8 1.6-0.8 4.1-1.6 5.6-1.8 1.8-0.3 3.6 0.3 5.3 1.9q2.6 2.2 3.6 1.2 1-1-1.8-3.3c-2.1-1.6-4.1-2.2-7.3-2.2-2.5 0-5.6 0.6-6.9 1.3zm39.6 2c-3 2.7-3.7 4.1-4.1 8.2-0.5 4.1-0.2 5.6 1.7 8.5 1.2 1.9 3.3 4.1 4.7 4.7 1.3 0.7 4.1 1.3 6.2 1.3 2.1 0 4.8-0.5 6-1.1 1.2-0.6 3.3-2.3 4.5-3.8 1.3-1.4 2.4-3 2.4-3.6 0.1-0.5 0.2-2.3 0.3-4 0.2-1.6-0.5-4.5-1.3-6.4-0.9-1.9-2.8-4.3-4.1-5.3-1.7-1.3-4.2-1.8-7.6-1.8-4.3 0-5.6 0.5-8.7 3.3zm29.3 9.7c0 12.3 0.1 13 2 13 1.8 0 1.9-0.6 1.8-8.2-0.1-4.6 0.4-9.3 1-10.5 0.6-1.3 2.5-3 4.2-3.8 1.6-0.8 4-1.3 5.2-1 1.2 0.3 3.2 1.5 4.3 2.6 1.6 1.7 2.1 4 2.5 11.5 0.3 6.6 0.8 9.4 1.7 9.4 0.9 0 1.3-2.7 1.3-10 0-9.8-0.1-10.1-3-13-2.6-2.5-3.8-3-8-3-3.7 0-5.6 0.5-7 2l-2 2c0-3.3-0.7-4-2-4-1.9 0-2 0.7-2 13zm35.1-11.2c-1.3 0.9-1.9 2.1-1.5 2.5 0.5 0.5 2.3 0.2 4.1-0.7 1.8-0.9 4.3-1.6 5.5-1.6 1.2 0 3.2 1 4.4 2.2 1.1 1.3 2.4 3.5 2.7 5.1l0.7 2.7c-14.8-0.2-15.7 0-17.3 2.1-1 1.3-1.8 3.3-1.8 4.4 0 1.1 0.8 3.1 1.8 4.3 1.2 1.7 3.1 2.5 6.6 2.9 4 0.5 5.4 0.2 7.8-1.6 2.8-2.1 2.9-2.1 2.9-0.1 0 1.1 0.4 2 1 2 0.5 0 1-3.7 1.1-8.7 0.1-4.9 0.1-9.7 0-10.8-0.1-1.1-1.3-3-2.7-4.2-1.9-1.8-3.7-2.3-7.7-2.3-3.5 0-6 0.6-7.6 1.8zm56 0c-1.3 0.9-1.9 2.1-1.5 2.5 0.5 0.5 2.3 0.2 4.1-0.7 1.8-0.9 4.3-1.6 5.5-1.6 1.2 0 3.2 1 4.4 2.2 1.2 1.3 2.5 3.5 2.8 5.1l0.6 2.7c-13.7-0.5-15.2-0.2-17 1.5-1.2 1.2-2.1 3.2-2.1 5 0 1.8 0.9 3.8 2.1 5 1.3 1.2 4.1 2.2 6.8 2.4 3.8 0.4 5 0 6.7-1.7 1.1-1.2 2.3-2.2 2.7-2.2 0.4 0 0.8 0.9 0.8 2 0 1.1 0.4 2 1 2 0.5 0 1-3.7 1.1-8.7 0.1-4.9 0.1-9.7 0-10.8-0.1-1.1-1.3-3-2.7-4.2-1.9-1.8-3.7-2.3-7.7-2.3-3.5 0-6 0.6-7.6 1.8zm44.6 0c-1.5 1-3.3 2.8-4 4.1-0.7 1.3-1.2 4.8-1.2 7.7 0 4.6 0.4 5.8 3 8.5 2.3 2.4 4.1 3.2 8 3.6 3.5 0.4 5.9 0.1 8.2-1.1 1.8-0.9 3.3-2 3.3-2.6 0-0.5-0.5-1.2-1-1.5-0.6-0.3-2.1 0.2-3.3 1-1.2 0.8-3.5 1.5-5 1.5-1.5 0-3.8-0.5-5-1-1.2-0.6-2.9-2.1-3.7-3.3-0.8-1.2-1.3-4.2-1.2-6.7 0.2-3.1 0.9-5.2 2.5-6.8 1.2-1.2 3.5-2.4 5.2-2.6 1.7-0.2 4.4 0.4 6.5 1.6 1.9 1 4.1 1.7 5 1.3 1.1-0.4 0.8-1.1-1.5-3-2.4-1.9-4.2-2.4-8-2.4-2.9 0.1-6.2 0.8-7.8 1.7zm25.8-0.2c-2 1-2.7 1.9-2 2.5 0.6 0.7 2.3 0.5 5-0.6 2.2-0.8 4.7-1.5 5.7-1.5 1 0 2.9 1.1 4.3 2.5 1.3 1.4 2.5 3.6 2.5 5 0 2.4-0.2 2.5-6.3 2.3-4.4-0.1-7 0.3-9 1.5-1.5 0.9-3 2.6-3.2 3.7-0.3 1.1 0 3 0.6 4.3 0.7 1.2 1.9 2.8 2.8 3.4 0.8 0.7 3.4 1.3 5.6 1.3 2.2 0 5.2-0.7 6.7-1.5 2.4-1.3 2.8-1.3 2.8 0 0 0.8 0.8 1.5 2 1.5 1.8 0 2-0.7 1.9-7.7 0-4.3-0.4-9.5-1-11.5-0.5-2.1-2-4.5-3.2-5.3-1.3-0.9-4.4-1.5-7.2-1.5-2.8 0.1-6.4 0.8-8 1.6zm29.5 11.4c0 8 0.3 13 1 13 0.5 0 1-3.2 1-7.5 0-4.7 0.5-8.6 1.5-10.5 0.8-1.6 2.9-3.7 4.7-4.6 2.8-1.3 3.7-1.4 6.1-0.2 1.6 0.7 3.3 2.1 3.8 3.1 0.5 0.9 0.9 5.8 0.9 10.7 0 7.3 0.2 9 1.5 9 1.2 0 1.5-1.5 1.5-7.5 0-4.7 0.5-8.6 1.5-10.5 0.8-1.6 2.9-3.7 4.7-4.6 2.5-1.2 3.8-1.3 5.8-0.5 1.3 0.6 3 2.2 3.7 3.6 0.7 1.4 1.3 6.2 1.3 11 0 7.8 0.1 8.5 2 8.5 1.8 0 2-0.7 1.9-7.7 0-4.3-0.4-9.5-1-11.5-0.5-2.1-2-4.5-3.2-5.3-1.2-0.8-4.4-1.5-7-1.5-3.5 0-5.5 0.6-7.4 2.3l-2.6 2.2c-4.2-3.9-5.9-4.5-9.5-4.5-2.6 0-5.8 0.7-7 1.5-2 1.3-2.2 1.3-2.2 0 0-0.8-0.7-1.5-1.5-1.5-1.3 0-1.5 2.1-1.5 13zm53.5-11.7c-1.1 0.7-2.2 1.2-2.3 1.2-0.2 0 0.1 0.8 0.5 1.8 0.7 1.5 1 1.5 2.3 0.3 0.8-0.8 3-1.6 5-1.9 1.9-0.3 4.4-0.1 5.5 0.5 1.1 0.6 2.4 1.8 2.9 2.7 0.5 0.9 1 2.6 1 3.9 0.1 2.1-0.3 2.2-7.4 2.1-6.8-0.1-7.7 0.1-9.4 2.3-1.3 1.6-1.6 3.2-1.2 5.3 0.3 1.7 1.6 3.8 2.8 4.7 1.3 1 4 1.8 6.3 1.8 2.2 0 5-0.7 6.2-1.5 2-1.3 2.3-1.3 2.8 0 0.2 0.8 1.1 1.5 2 1.5 1.2 0 1.5-1.7 1.5-9.5 0-5.3-0.6-10.5-1.2-11.7-0.6-1.3-1.9-2.8-2.8-3.5-0.8-0.7-4-1.2-7-1.2-3.1 0-6.4 0.6-7.5 1.2zm28.5 11.7c0 10.9 0.2 13 1.5 13 1.2 0 1.5-1.8 1.7-9.1 0.2-8.5 0.4-9.2 3-11.5 1.5-1.3 3.7-2.4 4.8-2.4 1.2 0 2-0.7 2-1.7 0-1.5-0.5-1.7-3.3-1-1.8 0.4-4 1.6-5 2.5-1.7 1.6-1.8 1.6-1.8-0.5 0-1.4-0.5-2.3-1.4-2.3-1.3 0-1.5 2.1-1.5 13zm20.1-11.2c-1.3 0.9-1.9 2.1-1.5 2.5 0.5 0.5 1.8 0.4 2.9-0.1 1.1-0.6 3.3-1.3 5-1.6 1.6-0.2 4.2 0.2 5.7 1 2.1 1.1 2.8 2.2 3 5l0.3 3.5c-8.6-0.2-11.7-0.2-12.5-0.1-0.9 0-2.4 0.8-3.5 1.6-1.3 0.9-2 2.7-2 4.6 0 1.7 0.9 4 2.2 5.4 1.7 1.8 3.3 2.4 6.5 2.4 2.3 0 5.3-0.7 6.5-1.5 2-1.3 2.3-1.3 2.8 0 0.2 0.8 1.1 1.5 2 1.5 1.2 0 1.4-1.8 1.2-10.9-0.2-10.3-0.4-11-2.7-13-1.9-1.6-3.9-2.1-8-2.1q-5.5 0-7.9 1.8zm62.9 11.2c0 8 0.3 13 1 13 0.5 0 1.1-3.8 1.2-8.9 0.2-7.5 0.6-9.3 2.4-11.5 1.5-1.8 3.2-2.6 5.3-2.6q3.1 0 3.1-1.5-0.1-1.5-3-1.5c-1.6 0-3.6 0.7-4.4 1.5-0.8 0.8-1.8 1.5-2.1 1.5-0.3 0-0.5-0.7-0.5-1.5 0-0.8-0.7-1.5-1.5-1.5-1.3 0-1.5 2.1-1.5 13zm19.8-11.1c-1.3 1.1-2 2.3-1.6 2.8 0.5 0.4 2.3 0.1 4-0.8 1.8-1 4.4-1.6 5.9-1.5 1.4 0 3.6 1 4.8 2.1 1.2 1.1 2.1 3.2 2.1 4.8 0 2.7-0.1 2.7-6.8 2.5-3.7-0.1-7.3 0.2-8 0.5-0.7 0.4-1.9 1.9-2.7 3.5-1.1 2.1-1.2 3.2-0.2 5.2 0.6 1.3 2.3 3 3.7 3.7 1.3 0.7 4.1 1.3 6.2 1.3 2.4 0 4.5-0.7 5.8-2 1.1-1.1 2.2-2 2.5-2 0.2 0 0.5 0.9 0.5 2 0 1.1 0.4 2 1 2 0.5 0 1-3.5 1.1-8.2 0.1-4.6 0.2-9.4 0.1-10.8-0.1-1.4-1.3-3.5-2.7-4.7-2-1.8-3.8-2.3-7.9-2.3-3.8 0-6.1 0.6-7.8 1.9zm28.2 0.1c-1.3 1.2-2 3.3-2 5.5 0 2.9 0.5 3.8 3 5 1.6 0.8 4.6 1.8 6.7 2.1 2.1 0.3 4.3 0.8 5 1.2 0.7 0.4 1.5 1.6 1.6 2.7 0.2 1.1-0.1 2.6-0.7 3.3-0.6 0.7-3.1 1.3-5.6 1.2-2.5 0-5.8-0.7-7.3-1.5-1.5-0.8-3-1.2-3.3-0.7-0.3 0.4-0.5 1.3-0.5 2 0 0.6 1.5 1.7 3.3 2.2 1.8 0.6 5.5 0.9 8.2 0.8 2.8-0.2 5.9-1.1 7.2-2 1.6-1.2 2.3-2.7 2.2-4.7-0.1-1.6-0.7-3.7-1.5-4.5-0.7-0.9-2.6-1.8-4.1-2.1-1.5-0.3-4.4-1-6.5-1.5-2.6-0.7-3.9-1.7-4.4-3.2-0.4-1.7 0-2.7 1.6-3.8 1.2-0.9 3.7-1.5 5.4-1.4 1.7 0.1 4.2 0.6 5.4 1.3 1.7 0.8 2.4 0.8 2.9-0.1 0.4-0.7-0.2-1.9-1.2-2.6-1.1-0.7-4.5-1.2-7.7-1.2-4.4 0-6.2 0.5-7.7 2zm26.6 1.3c-2.5 2.5-3.4 4.2-3.6 7.7-0.2 2.5 0 5.8 0.5 7.4 0.5 1.6 2.5 4 4.5 5.3 2.3 1.5 4.9 2.3 8 2.3 3.2 0.1 5.3-0.6 7.3-2.2 2-1.6 2.5-2.6 1.7-3.3q-1.1-1-1.8 0.3c-0.4 0.8-3.1 1.7-5.9 2-4.4 0.6-5.5 0.4-7.4-1.3-1.2-1.1-2.8-3.2-3.6-4.7l-1.3-2.8c18.8 0 22.1-0.4 22.5-1.2 0.4-0.7-0.2-3-1.2-5.2-1-2.1-3.1-4.7-4.6-5.7-1.7-1.2-4.5-1.9-7.3-1.9-3.7 0-5 0.6-7.8 3.3zm28.4 9.7c0 12.3 0.1 13 2 13 1.8 0 2-0.7 2-9 0-8.2 0.2-9.2 2.4-11.5 1.4-1.4 3.4-2.5 4.5-2.5 1.2 0 2.1-0.6 2.1-1.5 0-0.9-1-1.5-2.6-1.5-1.5 0-3.5 1-4.6 2.3l-1.9 2.2c-0.7-3.5-1.6-4.5-2.4-4.5-1.3 0-1.5 2.1-1.5 13zm22.5-12.3c-1.1 0.3-2.6 1-3.3 1.7-0.7 0.6-1 1.5-0.5 1.9 0.4 0.5 2.4 0.1 4.5-0.7 2-0.8 4.9-1.3 6.5-1 1.5 0.3 3.6 1.5 4.6 2.7 1 1.2 1.6 3.1 1.5 4.2-0.3 1.7-1.2 2-5.8 2.1-3.1 0.1-6.7 0.4-8 0.7-1.4 0.3-3 1.6-3.7 2.9-0.6 1.3-0.9 3.4-0.7 4.8 0.2 1.4 1.4 3.3 2.6 4.3 1.3 1 3.8 1.8 6 1.8 2.1-0.1 5.1-0.8 6.8-1.6 2.6-1.3 3-1.3 3 0 0 0.9 0.9 1.5 2.2 1.5 2.2 0 2.2-0.1 1.6-9.7-0.3-5.4-1-10.6-1.5-11.7-0.5-1-2.1-2.5-3.6-3.2-1.5-0.8-4.4-1.3-6.5-1.3-2.1 0.1-4.6 0.4-5.7 0.6zm75.5 2.1c-1.8 1.5-3.6 4.3-4.2 6.2-0.6 1.9-0.7 4.9-0.3 6.5 0.4 1.7 1.5 4.1 2.3 5.4 0.9 1.2 3 2.9 4.7 3.7 1.6 0.8 4.6 1.4 6.7 1.4 2.1 0 5.1-0.8 6.8-1.7 1.6-1 3-2.1 3-2.5 0-0.5-0.7-1-1.5-1.3-0.9-0.3-1.7 0.1-1.9 0.8-0.2 0.8-2.3 1.2-6.1 1.2-5 0-6-0.3-8.1-2.7-1.4-1.6-2.4-3.5-2.4-4.3 0-1.2 1.8-1.5 11-1.5h11c-0.8-5.4-1.7-8-2.5-9.2-0.8-1.3-2.6-2.9-4-3.5-1.4-0.7-4.5-1.3-7-1.3-3.4 0-5.1 0.6-7.5 2.8zm61.1 7.3c0.3 9.9 0.4 10.1 3.6 13 2.5 2.2 4.2 2.9 7.5 2.9 2.8 0.1 5.2-0.6 7-2 2.7-2 2.8-2 2.8 0 0 1.1 0.6 2 1.5 2 1.2 0 1.5-2.1 1.5-13 0-10.9-0.3-13-1.5-13-1.2 0-1.5 1.5-1.5 7.3 0 3.9-0.5 8.7-1 10.5-0.6 1.9-2 3.6-3.5 4.2-1.4 0.6-3.7 1-5 1-1.4 0-3.7-1.1-5-2.5-2.3-2.3-2.5-3.2-2.5-11.5 0-8.5-0.2-9-2.2-9-2 0-2.1 0.4-1.7 10.1zm68.5-6.8c-2.5 2.5-3.4 4.2-3.6 7.7-0.2 2.5 0 5.8 0.5 7.4 0.5 1.6 2.5 4 4.5 5.3 2.3 1.5 4.9 2.3 8 2.3 3.2 0.1 5.3-0.6 7.3-2.2 2-1.6 2.5-2.6 1.7-3.3q-1.1-1-1.8 0.3c-0.4 0.8-3.1 1.7-5.9 2-4.4 0.6-5.5 0.4-7.4-1.3-1.2-1.1-2.8-3.2-3.6-4.7l-1.3-2.8c18.8 0 22.1-0.4 22.5-1.2 0.4-0.7-0.2-3-1.2-5.2-1-2.1-3.1-4.7-4.6-5.7-1.7-1.2-4.5-1.9-7.3-1.9-3.7 0-5 0.6-7.8 3.3zm45.4-2c-1.3 0.7-3.3 2.8-4.3 4.7-1.5 2.7-1.8 4.7-1.4 8.5 0.4 3.9 1.2 5.7 3.6 8 2.8 2.7 3.7 3 9.5 3 4.4 0 7-0.5 8.1-1.5 0.9-0.8 1.4-2.1 1.1-2.7-0.5-1-1.2-1-3.4 0.2-1.5 0.8-4.1 1.5-5.7 1.5-1.7 0-4.4-0.8-6-1.8-1.8-1.1-3.3-2.9-3.5-4.5l-0.5-2.7h21.5c-0.1-4.3-1-7-2.1-8.7-1.1-1.8-2.8-3.7-3.9-4.3-1.1-0.5-4-1-6.3-1-2.3 0-5.3 0.6-6.7 1.3zm48-0.6c-0.9 0.3-2.7 1.8-4.1 3.2-1.4 1.4-2.9 4.3-3.3 6.4-0.5 2.7-0.1 4.9 1.4 8.2 1.4 3.4 2.9 4.9 5.7 6.2 2.7 1.2 5 1.4 8.3 1 2.9-0.5 5.4-1.7 7.3-3.5 1.9-1.9 2.9-4.1 3.3-7.2 0.4-3.1 0.1-5.6-1-8-0.9-1.9-3-4.3-4.6-5.2-1.7-1-4.9-1.8-7.3-1.7-2.3 0-4.9 0.3-5.7 0.6zm26 12.3c0 12.3 0.1 13 2 13 1.8 0 2-0.7 2.2-9.5 0.2-7.9 0.6-9.8 2.3-11.5 1.1-1.1 3.5-2.3 5.5-2.7 3-0.5 3.8-0.2 6.2 2.3 2.7 2.8 2.8 3.4 2.8 12.2 0 7.5 0.2 9.2 1.5 9.2 1.1 0 1.5-1.8 1.8-8.7 0.2-5.7-0.2-9.9-1-12-0.7-1.8-2.2-3.7-3.3-4.3-1.1-0.5-4-1-6.3-1-2.4 0.1-5.7 0.9-7.5 2-3.2 2-3.2 2-3.2 0 0-1.1-0.7-2-1.5-2-1.3 0-1.5 2.1-1.5 13zm37.7-11.5c-1.5 0.9-3.4 3.1-4.2 5-1 2.3-1.4 5.3-1 8.3 0.3 3.3 1.3 5.5 3.2 7.5 2 2 4.1 2.9 7.8 3.3 3.9 0.5 5.7 0.2 8.5-1.4 1.9-1.1 4.1-3.5 4.9-5.3 0.8-1.9 1.4-4.7 1.3-6.4 0-1.6-0.6-4.2-1.2-5.7-0.6-1.6-2.5-3.7-4.3-4.8-2-1.2-4.9-2-7.7-1.9-2.5 0-5.8 0.6-7.3 1.4zm-1082.7 11c0 1.2 1.3 1.5 6.5 1.5 5.1 0 6.5-0.3 6.5-1.5 0-1.2-1.4-1.5-6.5-1.5-5.2 0-6.5 0.3-6.5 1.5zm599 55c0 15.8 0.2 18.5 1.5 18.5 1.2 0 1.5-2.7 1.5-18.5 0-15.8-0.3-18.5-1.5-18.5-1.3 0-1.5 2.7-1.5 18.5zm105-11.5v7c-4.7-2.3-8.1-3-10.5-3-3.4 0-5.3 0.7-7.5 2.5-1.7 1.4-3.5 4.2-4 6.3-0.6 2.1-0.7 5-0.2 6.7 0.5 1.7 1.4 4 2 5.3 0.6 1.2 2.5 2.9 4.2 3.7 1.6 0.8 4.6 1.5 6.7 1.5 2.5 0.1 4.7-0.7 6.6-2.2l2.8-2.3c0.7 3.5 1.5 4.5 2.4 4.5 1.2 0 1.5-2.7 1.5-18.5 0-17.8-0.1-18.5-2-18.5-1.9 0-2 0.7-2 7zm14.4-6.2c-0.5 0.4-1 1.4-1 2.2 0 0.8 1 1.5 2.1 1.5 1.3 0 2-0.7 2-1.9 0-1.1-0.5-2.1-1-2.2-0.6-0.2-1.5 0-2.1 0.4zm-448.4 2.7c0 1.2 1.6 1.5 8.5 1.5 6.1 0 8.4 0.4 8.4 1.3 0 0.6-1.8 3.2-3.9 5.7-2.2 2.5-4 5.2-4 6q-0.1 1.5 4.2 2.2c2.7 0.4 4.9 1.5 6 3 1 1.3 1.8 3.1 1.8 4.1 0 0.9-1.2 2.8-2.5 4.2-1.6 1.7-3.6 2.5-5.8 2.5-1.8 0-4.8-0.5-6.7-1.1-2-0.7-3.8-1.6-4-2.1-0.3-0.5-1.1-0.2-1.8 0.7-1 1.3-0.8 1.8 1.5 3.3 1.9 1.2 4.7 1.7 9.9 1.7 6 0 7.7-0.4 9.3-2 1.1-1.1 2.5-3.3 3-5 0.7-2.2 0.5-3.9-0.8-6.5q-1.6-3.5-4.8-4.5c-1.7-0.5-3.4-1.3-3.8-1.7-0.3-0.5 0.9-2.7 2.7-5 1.8-2.3 3.8-4.8 4.5-5.5 0.7-0.7 1.3-2 1.3-2.8 0-1.2-2-1.5-11.5-1.5-9.6 0-11.5 0.3-11.5 1.5zm78 16v17.5c22 0 24-0.2 24-1.5 0-1.2-1.8-1.5-10-1.5h-10v-14c15.6 0.4 17.6 0.2 17.3-0.7-0.2-0.9-2.9-1.3-8.8-1.3h-8.5v-13c18.2 0 20-0.3 20-1.5 0-1.2-2-1.5-12-1.5h-12zm115 4c0 7.4 0.3 13.5 0.7 13.5 0.4 0 1-3.7 1.3-8.2 0.3-5.4 1.1-9.3 2.2-11 1-1.6 3-3.3 4.5-3.8 1.5-0.6 3.9-0.8 5.3-0.5 1.3 0.3 3.2 1.9 4.2 3.5 1.3 2.2 1.8 5.2 1.8 11.5 0 7.8 0.1 8.5 2 8.5 1.8 0 2-0.7 1.9-7.7 0-4.3-0.4-9.4-0.9-11.3-0.5-1.9-2.1-4.3-3.5-5.2-1.4-1-4.4-1.8-6.8-1.8-2.7 0-5.2 0.7-7 2-1.5 1.1-3 2-3.2 2-0.3 0-0.5-1.1-0.5-2.5 0-1.4-0.5-2.5-1-2.5-0.7 0-1 5.2-1 13.5zm-82.2-11.4c-0.9 0.6-2.1 2.2-2.7 3.5-0.8 1.7-0.8 3.2-0.1 4.9 0.5 1.4 2 2.9 3.2 3.4 1.2 0.5 3.9 1.2 6 1.5 2.1 0.3 4.6 1.2 5.7 1.9 1.7 1 1.8 1.5 0.7 3.7-1 2-2 2.6-5.7 2.8-2.6 0.1-5.6-0.4-7.2-1.3-1.5-0.8-3-1.2-3.3-0.7-0.3 0.4-0.5 1.3-0.5 2 0 0.6 1.7 1.7 3.8 2.3 2.2 0.7 5.9 0.9 8.8 0.5 2.7-0.3 5.8-1.4 6.7-2.4 1-0.9 1.8-2.9 1.8-4.4 0-1.9-1-3.5-2.8-4.8-1.5-1.1-3.4-2-4.2-2-0.9 0-3.2-0.5-5.3-1-2.6-0.7-3.9-1.7-4.3-3.2-0.4-1.3 0-2.8 0.7-3.6 0.8-0.7 2.9-1.4 4.9-1.6 1.9-0.2 4.7 0.3 6.2 1.1 2.4 1.1 2.8 1.1 3.3-0.2 0.2-0.8-0.4-1.9-1.5-2.5-1.1-0.5-4.4-1-7.3-1-2.9 0.1-6 0.5-6.9 1.1zm25.8 2.2c-3.2 2.8-3.7 4-4.1 8.2-0.2 3.8 0.2 5.8 1.8 8.4 1.2 1.9 3.4 4 4.9 4.7 1.5 0.8 4.4 1.4 6.5 1.4 2.1 0 5.2-0.9 7-2 2.5-1.5 3-2.3 2.3-3.5-0.9-1.3-1.4-1.2-3.8 0.5-1.5 1.2-4.1 2.1-5.7 2.1-1.7-0.1-4.1-0.8-5.3-1.6-1.2-0.8-2.9-2.8-3.7-4.5-0.9-1.6-1.3-4-1.1-5.2 0.3-1.3 1.1-3.3 1.8-4.6 0.7-1.2 2.7-2.9 4.5-3.7 1.8-0.8 3.8-1.5 4.5-1.5 0.7 0 2.5 0.9 4 2 1.5 1.1 3.5 1.8 4.5 1.4 1.5-0.5 1.4-0.8-1-3-2.2-1.9-3.9-2.4-8.1-2.4-4.6 0-5.8 0.5-9 3.3zm27.2-1.4c-1.3 1.1-2 2.3-1.6 2.8 0.5 0.4 2.4 0 4.3-0.9 1.9-1 4.2-1.8 5.2-1.8 1 0 3 0.9 4.5 2 1.9 1.4 2.8 2.9 2.8 5v3c-13.8-0.2-14.7 0-16.3 2.1-1 1.3-1.8 3.5-1.8 4.9 0 1.4 1 3.4 2.1 4.5 1.3 1.2 4 2.2 6.8 2.4 3.7 0.3 5.1 0 6.9-1.7 1.2-1.2 2.5-2.2 2.8-2.2 0.2 0 0.5 0.9 0.5 2 0 1.1 0.4 2 1 2 0.5 0 1-3.5 1.1-8.2 0.1-4.6 0.2-9.4 0.1-10.8-0.1-1.4-1.3-3.5-2.7-4.7-2-1.8-3.8-2.3-7.9-2.3-3.8 0-6.1 0.6-7.8 1.9zm66.1-0.9c-0.9 0.6-2.6 2.5-3.8 4.3-1.3 2-2.1 4.9-2.1 7.7-0.1 3.7 0.5 5.2 3.2 8.4 2.8 3.3 4 3.9 8.3 4.3 3.4 0.4 5.9 0.1 8.2-1.1 1.8-0.9 3.3-1.9 3.3-2.3 0-0.5-0.3-1.1-0.8-1.5-0.4-0.4-2-0.1-3.5 0.7-1.5 0.8-3.9 1.5-5.2 1.5-1.4 0-3.7-0.6-5.2-1.2-1.4-0.7-3.2-2.5-4-4-0.7-1.6-1.3-3-1.3-3.3 0-0.3 4.9-0.5 11-0.5 10.7 0 11 0 11-2.2 0-1.3-0.7-3.8-1.5-5.5-0.9-1.8-2.9-4-4.5-4.8-1.7-0.8-5-1.5-7.3-1.5-2.3 0.1-5 0.5-5.8 1zm27.5 0c-1.2 0.5-2.4 1.3-2.8 1.9-0.3 0.6-0.1 1.4 0.6 1.7 0.7 0.3 2.6-0.1 4.3-0.9 1.6-0.9 4.3-1.4 6-1.2 1.6 0.2 3.7 1.4 4.7 2.7 1 1.3 1.8 3.3 1.8 4.6 0 2.1-0.4 2.2-6.9 2-4.9-0.2-7.4 0.1-8.6 1.2-1 0.8-2.1 2.4-2.5 3.5-0.4 1.1-0.4 3.2 0.1 4.8 0.6 2 1.9 3 4.6 3.8 2.1 0.6 5.4 0.9 7.5 0.5 2.1-0.3 4-1.3 4.3-2.1 0.2-0.8 0.9-1.5 1.5-1.5 0.5 0 1 0.9 1 2 0 1.1 0.6 2 1.5 2 1.2 0 1.4-1.7 1.2-10.6-0.2-10.1-0.4-10.7-3-13-2.2-1.9-3.8-2.4-8-2.3-2.9 0-6.2 0.4-7.3 0.9zm45.6-0.3c-0.9 0.4-2.3 1.3-3.2 2.2-0.8 0.9-2.1 2.6-2.7 3.9-0.6 1.2-1.1 4.2-1.1 6.7 0 3.7 0.6 5.2 3.2 8.1 2.7 3 4.1 3.7 8.3 4.1 3.4 0.4 5.9 0.1 8.2-1.1 1.8-0.9 3.3-1.9 3.3-2.3 0-0.5-0.3-1.1-0.8-1.5-0.4-0.4-2-0.1-3.5 0.7-1.5 0.8-3.9 1.5-5.2 1.5-1.4 0-3.8-0.6-5.3-1.4-1.5-0.7-3.2-2.2-3.6-3.2-0.5-1-1.1-2.5-1.3-3.1-0.3-1 2.3-1.3 10.7-1.3h11c0-3.9-0.6-6-1.2-7.2-0.6-1.3-2.3-3.3-3.7-4.5-1.9-1.6-3.9-2.2-7.1-2.2-2.5 0-5.2 0.3-6 0.6zm57 0c-0.9 0.3-2.7 1.8-4.1 3.2-1.4 1.4-2.9 4.3-3.3 6.4-0.5 2.7-0.1 4.9 1.4 8.2 1.4 3.4 2.9 4.9 5.7 6.2 2.6 1.1 5.1 1.4 8.3 1 2.4-0.3 5.2-1.4 6.2-2.4 1.2-1.3 1.4-2.2 0.8-3-0.8-1-1.6-0.8-3.8 0.7-1.5 1.2-4.2 2.1-6 2-2.1 0-4.1-0.9-5.7-2.5-1.4-1.4-2.8-3.7-3.2-5.2-0.3-1.6-0.2-4.1 0.3-5.7 0.5-1.6 2-3.7 3.4-4.8 1.3-1 3.9-2.1 5.7-2.3 2.4-0.4 3.9 0.1 5.8 1.8q2.6 2.2 3.6 1.2 1-1-1.8-3.3c-2.1-1.7-4-2.2-7.3-2.1-2.5 0-5.2 0.3-6 0.6zm24.5 2.7c-1.9 2-3.4 4.5-3.4 6-0.1 1.4-0.2 3.4-0.3 4.4-0.1 0.9 0.3 3 0.7 4.6 0.5 1.6 2.5 4 4.5 5.3 2.2 1.5 4.9 2.3 7.5 2.3 2.5 0 5.2-0.8 7.5-2.3 1.9-1.3 3.9-3.7 4.3-5.3 0.5-1.6 0.9-4.1 0.8-5.6-0.1-1.6-0.1-3.5-0.1-4.3 0-0.8-1.6-3.1-3.5-5-3.2-3.2-4.1-3.5-9.1-3.5-5.1 0-6 0.3-8.9 3.4zm63.5 9.6c0 12.3 0.1 13 2 13 1.9 0 2-0.7 2-13 0-12.3-0.1-13-2-13-1.9 0-2 0.7-2 13zm16.5-11.2c-1.7 1-3.6 3.3-4.3 5-0.8 1.9-1.1 5-0.8 7.7 0.4 3.4 1.3 5.1 3.6 7 1.6 1.4 3.3 2.6 3.7 2.7 0.4 0 2.6 0.2 4.8 0.3 2.2 0.1 5.2-0.4 6.7-1.1 1.5-0.8 2.8-1.8 2.8-2.4 0-0.5 0.5-1 1.2-1 0.9 0 1.1 1.1 0.5 4.2-0.5 2.4-1.7 5.2-2.8 6.3-1.6 1.6-3.3 2-7.9 2-4.2 0-6.4-0.5-7.7-1.7-1-1-2.2-1.5-2.6-1-0.5 0.4-0.8 1.3-0.8 2 0 0.6 1.7 1.7 3.8 2.4 2.1 0.7 5.7 1.2 8.1 1.2 2.5 0.1 5.7-0.5 7.3-1.1 1.7-0.8 3.4-2.6 4.1-4.5 0.8-2.2 1.2-7.9 1.1-16.5-0.2-11.3-0.4-13.3-1.8-13.3-0.9 0-1.5 0.9-1.5 2 0 2-0.1 2-2.8 0q-2.7-2.1-7.2-2c-2.5 0-5.9 0.8-7.5 1.8zm33 1.6c-1.9 2-3.4 4.5-3.4 6-0.1 1.4-0.2 3.4-0.3 4.4-0.1 0.9 0.3 3 0.7 4.6 0.5 1.6 2.5 4 4.5 5.3 2.2 1.5 4.9 2.3 7.5 2.3 2.5 0 5.2-0.8 7.5-2.3 1.9-1.3 3.9-3.7 4.3-5.3 0.5-1.6 0.9-4.1 0.8-5.6-0.1-1.6-0.1-3.5-0.1-4.3 0-0.8-1.6-3.1-3.5-5-3.2-3.2-4.1-3.5-9.1-3.5-5.1 0-6 0.3-8.9 3.4zm-454.5 9.1c0 1.2 1.3 1.5 6.5 1.5 5.1 0 6.5-0.3 6.5-1.5 0-1.2-1.4-1.5-6.5-1.5-5.2 0-6.5 0.3-6.5 1.5z"/>
		<path id="Path 2" fill-rule="evenodd" class="s2" d="m1478 71.1c3.6 0 9.7 0.6 13.5 1.5 3.8 0.8 9.7 2.9 13 4.7 3.3 1.8 8.2 5.5 11 8.2 2.7 2.8 6.4 7.7 8.2 11 1.7 3.3 4.3 9.8 5.7 14.5 1.3 4.7 3.4 11.4 4.6 15 1.2 3.6 3.4 10.6 5 15.5 1.5 4.9 4.2 13.5 6 19 1.7 5.5 4.5 14.3 6.1 19.5 1.7 5.2 4.4 13.8 6 19 1.7 5.2 4.6 14.4 6.5 20.5 1.9 6.1 4.8 15.1 6.4 20 1.5 4.9 5.6 17.8 9 28.5 3.3 10.7 7.4 23.6 8.9 28.5 1.6 4.9 4.3 13.5 6 19 1.8 5.5 4.8 14.9 6.7 21 1.9 6.1 4.9 15.3 6.5 20.5 1.7 5.2 4.3 13.6 5.9 18.5 1.5 4.9 4.2 13.4 5.9 18.8 1.7 5.3 3.5 12.5 4 16 0.5 3.4 0.5 8.9 0 12.2-0.4 3.3-1.5 8-2.4 10.5-0.9 2.5-2.6 6.1-3.7 8-1.2 1.9-4.4 5.9-7.2 8.8-2.8 2.9-7.3 6.6-10.1 8.2-2.8 1.6-10.4 5-17 7.5-6.6 2.5-19 7.2-27.5 10.5-8.5 3.2-21.6 8.2-29 11-9.4 3.6-16.1 5.5-22 6.2-7 0.9-9.8 0.7-16-0.6-4.6-1-9.9-3-13.9-5.4-3.8-2.2-8.5-6.2-11.9-10.2-3-3.6-6.6-8.7-7.8-11.5-1.3-2.7-3.2-8.6-4.4-13-1.1-4.4-2.1-8.1-2.3-8.2-0.1-0.1-1.9 7.5-4 17-2.7 12.2-4.9 19.4-7.5 24.7-2.3 4.9-5.6 9.4-9.2 13-3 3-8.2 6.9-11.5 8.7-3.3 1.8-9.2 3.9-13 4.7-6.2 1.4-11.2 1.4-44.5 0.1-20.6-0.8-40.2-2-43.5-2.6-3.3-0.6-8.3-2.1-11-3.3-2.8-1.3-7.1-3.9-14.5-9.6v3.5c0 1.9-0.7 6.5-1.5 10.3-0.8 3.7-3.1 9.4-5.1 12.7-1.9 3.3-5.3 7.8-7.4 10-2.2 2.2-6.5 5.6-9.7 7.5-3.1 1.9-8.7 4.3-12.3 5.2-5.6 1.4-12.3 1.7-47.3 1.7-32.6 0.1-42-0.2-47.5-1.4-3.7-0.8-9.4-3.1-12.7-5.1-3.3-1.9-7.8-5.3-10-7.4-2.2-2.2-5.6-6.5-7.5-9.7-1.9-3.1-4.3-8.7-5.2-12.3-0.9-3.6-1.7-8.6-1.7-11.2-0.1-2.7-0.6-5-1.1-5.3-0.5-0.3-1-4.1-1-8.5 0-4.4 0.3-7.8 0.7-7.6 0.5 0.2 0.7-2.4 0.6-5.7-0.2-3.4-0.3-12.6-0.3-20.4 0-8.5-0.4-14.5-1-14.8-0.5-0.3-1-4.3-1-9 0-4.7 0.3-8.5 0.7-8.5 0.5 0 0.7-2.4 0.6-5.3-0.1-2.8-0.5-23.6-0.8-46.2-0.3-22.6-0.8-44.7-1-49.2-0.4-7.2-0.7-8.3-2.3-7.9-0.9 0.1-7.9 2.1-29.2 8.1l0.1 18.5c0 10.2 0.5 25.3 0.9 33.5 0.5 8.3 0.9 17.7 0.9 21 0 3.3 0.9 18.8 2.1 34.5 1.1 15.7 3.2 40.9 4.6 56 2.6 26.7 2.7 27.7 1 34.5-0.9 3.9-2.1 8.8-2.5 11-0.5 2.2-0.9 3.3-1 2.5 0-0.8-1.6 0.8-3.4 3.5-1.9 2.8-5.6 6.9-8.3 9.3-2.7 2.4-7.6 5.6-10.9 7.2-3.3 1.5-9.8 3.5-14.5 4.4-4.7 0.8-21.5 3.7-37.5 6.3-20.5 3.3-32.1 4.7-39.5 4.7-7.2 0.1-12.2-0.4-16-1.6-3-0.9-8.5-3.6-18.7-10.3l-4.9 3.7c-2.7 2.1-8 4.9-11.9 6.3-5.5 2.1-13.7 3.5-39 6.6-17.6 2.1-35.3 4.3-39.3 4.9-4.4 0.6-8.7 1.9-11 3.3-2 1.3-6.2 3.3-9.2 4.4-3 1.2-9.8 2.6-15 3.2-5.2 0.6-15.6 1.8-23 2.6-7.4 0.8-30.6 3.3-51.5 5.4-20.9 2.2-55.8 5.9-77.5 8.2-34 3.6-40.4 4-46 3.1-3.6-0.6-8.8-2-11.5-3.2-2.8-1.2-7.4-3.9-10.3-6.1-2.8-2.1-7.2-6.7-14.3-16.4l0.1 3.8c0 2-0.7 6.7-1.5 10.5-0.8 3.7-3.1 9.4-5.1 12.7-1.9 3.3-5.3 7.8-7.4 10-2.2 2.2-6.5 5.6-9.7 7.5-3.1 1.9-8.7 4.3-12.3 5.2-5.6 1.4-12.3 1.7-47.3 1.7-32.6 0.1-42-0.2-47.5-1.4-3.7-0.8-9.4-3.1-12.7-5.1-3.3-1.9-7.5-5-9.4-6.7-1.8-1.8-5.1-5.9-7.3-9.2-2.1-3.3-4.7-8.8-5.8-12.2-1.1-3.5-1.8-7.2-1.5-8.3 0.3-1.1 0.2-2-0.3-2-0.4 0-0.6-3.6-0.5-8 0.2-4.8-0.1-8-0.7-8-0.6 0-1-3.7-1-9 0-5 0.4-9.2 1-9.5 0.6-0.3 0.8-1.5 0.5-2.7-0.3-1.3-0.5-9.8-0.5-19 0-9.3-0.3-16.8-0.8-16.8-0.4 0-0.8-4-1-9-0.1-5.3 0.2-9.2 0.8-9.5 0.6-0.3 0.8-1.5 0.5-2.7-0.2-1.3-0.7-23.4-1.1-49.3-0.4-25.9-0.7-47.1-0.8-47.3 0-0.2-10.9 2.7-24.1 6.4-13.2 3.7-26.5 7-29.5 7.4-3 0.4-8.2 0.4-11.5-0.1-3.3-0.4-8-1.5-10.5-2.4-2.5-0.9-6.3-2.7-8.5-3.9-2.2-1.3-6.5-5-9.6-8.2-3.1-3.3-6.5-7.7-7.6-9.9-1.2-2.2-3-7.1-4.2-11-1.3-4.4-2.4-11.1-2.7-18-0.3-6.1-0.8-11.7-1.1-12.5-0.3-0.8-0.5-3.3-0.4-5.5 0.1-2.2-0.5-15.2-1.3-29-1.4-22.3-1.4-25.8 0-32 0.8-3.9 2.9-9.7 4.7-13 1.8-3.2 5.9-8.5 9.2-11.8 3.3-3.2 8.7-7.1 12-8.8 3.4-1.6 12.6-4.4 21-6.3 8.2-1.9 38.4-8.5 67-14.6 28.6-6.1 81.2-17 182-37.2l4.5-4.5c2.5-2.5 7.8-6 12-8 7-3.4 8.9-3.7 28-5.9 11.3-1.2 29.5-3.2 40.5-4.3 11-1.2 26.1-2.8 33.5-3.6 7.4-0.8 28.4-3.1 46.5-5 18.1-2 38.9-4.2 46-5 7.1-0.8 15.6-1.5 18.7-1.5 3.2 0 8.8 0.7 12.5 1.5 3.8 0.8 9.5 3.1 12.8 5.1 3.3 1.9 7.8 5.3 10 7.4 2.2 2.2 5.4 6.2 7 8.9 2.8 4.7 3.2 5 6.5 4.5 1.9-0.2 10.7-1.1 19.5-1.9 8.8-0.8 18.9-1.5 22.5-1.5 3.6 0 8.4 0.5 10.7 1 4.1 0.9 4.1 0.9 10.1-4.8 3.2-3.1 8.6-7.1 11.8-8.9 3.3-1.7 7.7-3.6 9.9-4.2 2.2-0.6 22.5-2.7 45-4.7 23-2 43.3-3.3 46.2-3 2.9 0.3 7.2 1.3 9.5 2.1 4.1 1.4 5.1 1.3 24.8-3.1 11.3-2.4 42.8-9.1 70-14.9 27.2-5.7 64.1-13.3 82-16.9 17.9-3.6 45.5-9.1 61.5-12.2 20.5-4 31.6-5.7 38-5.8 6.6-0.1 10.6 0.4 15 1.9 3.3 1 8.8 3.9 12.2 6.2 3.5 2.4 6.4 4.2 6.5 4.1 0.2-0.2 1.4-2.4 2.8-5.1 1.4-2.6 4.1-6.7 6.1-9 2-2.3 6-5.8 9-7.8 3-2 8-4.6 11.1-5.8 3.2-1.1 10.9-2.7 17-3.5 6.2-0.8 15.8-2 21.3-2.6 5.5-0.7 16.3-2 24-3 7.7-1 16.9-1.8 20.5-1.9zm-1194 232.9v16h-10.3c-7.8 0-11.1 0.5-14.2 1.9-2.2 1-5.2 3.1-6.7 4.7-1.5 1.6-3.4 4.6-4.2 6.6-1.4 3.4-1.6 37.1-1.6 326.8 0 289.7 0.2 323.4 1.6 326.8 0.8 2 2.7 5 4.2 6.5 1.5 1.6 4.4 3.7 6.4 4.8 3.7 1.9 17 1.9 707.3 1.9 690.3 0 703.6 0 707.3-1.9 2-1.1 4.9-3.2 6.4-4.8 1.5-1.5 3.4-4.5 4.2-6.6 1.4-3.3 1.6-37 1.6-327 0-312.5-0.1-323.3-1.9-327.2-1-2.2-3.1-5.2-4.7-6.7-1.6-1.5-4.6-3.4-6.6-4.2-3.1-1.3-8.8-1.6-59.8-1.6v-16h24.3c13.3 0 27.4 0.5 31.2 1.1 3.8 0.5 9.4 2.2 12.3 3.7 2.9 1.5 7.4 4.7 9.8 7.2 2.5 2.5 5.6 6.7 7 9.5 1.3 2.7 2.9 7.9 3.4 11.5 0.6 4 1 126.1 1 323 0 217.3-0.3 318.5-1.1 323-0.6 3.6-1.9 8.4-3 10.7-1 2.4-4.1 6.7-6.8 9.5-2.7 2.9-7.3 6.6-10.2 8.1-3.2 1.6-8.3 3.1-12.4 3.7-4.3 0.6-277 0.9-702 0.9-425 0-697.7-0.3-702-0.9-4.2-0.6-9.2-2.1-12.3-3.7-3-1.5-7.4-4.8-9.9-7.3-2.5-2.5-5.6-6.8-6.9-9.5-1.3-2.8-2.8-7.9-3.3-11.5-0.8-4.4-1.1-107.7-1.1-323 0-196.9 0.4-319 1-323 0.5-3.6 2.1-8.8 3.4-11.5 1.4-2.8 4.5-7 6.9-9.5 2.5-2.5 6.9-5.7 9.9-7.2 2.9-1.6 8-3.2 11.3-3.7 3.3-0.5 9.3-0.9 20.5-1.1zm291.7 474c0.2 4.7 0.2 12.8 0 18-0.1 5.2-0.3 1.4-0.3-8.5 0-9.9 0.2-14.2 0.3-9.5zm822 7c0.2 3.6 0.2 9.6 0 13.5-0.2 3.8-0.3 0.9-0.3-6.5 0-7.4 0.1-10.6 0.3-7zm-708.2 2c0.3 0 0.5 0.9 0.5 2 0 1.8-0.6 2-12.5 1.6l5.8-0.3c4.3-0.2 5.7-0.7 5.7-1.8 0-0.8 0.2-1.5 0.5-1.5zm173.2 4c0.2 2.5 0.2 6.7 0 9.5-0.2 2.7-0.3 0.7-0.3-4.5 0-5.2 0.1-7.5 0.3-5zm-3 1.5c0.2 2.7 0.2 6.8 0 9-0.2 2.2-0.3 0-0.3-5 0-5 0.1-6.8 0.3-4zm573.8-4.5c0.3 0 0.5 0.7 0.5 1.5 0 1.2-1.3 1.5-12.5 1.1l5.8-0.3c3.1-0.2 5.7-0.8 5.7-1.3 0-0.5 0.2-1 0.5-1zm3.2 4.5c0.2 2.7 0.2 6.8 0 9-0.2 2.2-0.3 0-0.3-5 0-5 0.1-6.8 0.3-4zm-415 0c0.2 2.2 0.2 6 0 8.5-0.2 2.5-0.4 0.7-0.4-4 0-4.7 0.2-6.7 0.4-4.5zm366 0c0.2 2.2 0.2 6 0 8.5-0.2 2.5-0.4 0.7-0.4-4 0-4.7 0.2-6.7 0.4-4.5zm13 2c0.2 2.2 0.2 5.6 0 7.5-0.2 1.9-0.4 0.1-0.4-4 0-4.1 0.2-5.7 0.4-3.5zm-734 50.5c0.2 3.6 0.2 9.6 0 13.5-0.2 3.8-0.3 0.9-0.3-6.5 0-7.4 0.1-10.6 0.3-7zm3 0c0.2 3.6 0.2 9.6 0 13.5-0.2 3.8-0.3 0.9-0.3-6.5 0-7.4 0.1-10.6 0.3-7zm232 0c0.2 3.6 0.2 9.6 0 13.5-0.2 3.8-0.3 0.9-0.3-6.5 0-7.4 0.1-10.6 0.3-7zm165 0c0.2 3.6 0.2 9.6 0 13.5-0.2 3.8-0.3 0.9-0.3-6.5 0-7.4 0.1-10.6 0.3-7zm414.8-5.8c0.3 0.5 0.3 1.3 0 1.8-0.3 0.5-2.1 1-7.5 1l-0.6 23.5-0.4-24.5h4c2.5 0 4-0.5 4-1.3 0-0.6 0.2-0.9 0.5-0.5zm-10.5 1.8l-0.4 24.5-0.3-11.8c-0.3-11.3-0.4-11.7-2.5-12.1-1.9-0.3-1.8-0.4 3.2-0.6zm-706.3 11.5c0.2 2.7 0.2 6.8 0 9-0.2 2.2-0.3 0-0.3-5 0-5 0.1-6.8 0.3-4zm52.8-4.5c0.3 0 0.5 0.7 0.5 1.5 0 1.2-1.3 1.5-12.5 1.1l5.8-0.3c3.1-0.2 5.7-0.8 5.7-1.3 0-0.5 0.2-1 0.5-1zm3.2 4.5c0.2 2.7 0.2 6.8 0 9-0.2 2.2-0.3 0-0.3-5 0-5 0.1-6.8 0.3-4zm-58.9-3.3c0.1-0.1 0.2 0.3 0.2 0.8 0 0.6-2.6 0.9-12.5 0.7l6-0.7c3.3-0.4 6.1-0.7 6.3-0.8zm142.9 3.3c0.2 2.2 0.2 6 0 8.5-0.2 2.5-0.4 0.7-0.4-4 0-4.7 0.2-6.7 0.4-4.5zm20 0c0.2 2.2 0.2 6 0 8.5-0.2 2.5-0.4 0.7-0.4-4 0-4.7 0.2-6.7 0.4-4.5zm181 0c0.2 2.2 0.2 6 0 8.5-0.2 2.5-0.4 0.7-0.4-4 0-4.7 0.2-6.7 0.4-4.5zm-36 0.5c0.2 1.9 0.2 5.5 0 8-0.2 2.5-0.4 0.9-0.4-3.5 0-4.4 0.2-6.4 0.4-4.5zm472 0c0.2 1.9 0.2 5.5 0 8-0.2 2.5-0.4 0.9-0.4-3.5 0-4.4 0.2-6.4 0.4-4.5zm-607 52c0.2 3.6 0.2 9.6 0 13.5-0.2 3.8-0.3 0.9-0.3-6.5 0-7.4 0.1-10.6 0.3-7zm293-0.5c0.2 3.3 0.2 9.1 0 13-0.2 3.8-0.3 1.1-0.3-6 0-7.2 0.1-10.3 0.3-7zm-386 1.8c0.5 0.4 0.3 1.2-0.4 1.8-0.6 0.5-4.7 0.8-17.8 0.3l8.8-0.2c6.2-0.1 8.7-0.6 8.7-1.5 0-0.6 0.3-0.9 0.7-0.4zm83 6.2c0.2 2.2 0.2 6 0 8.5-0.2 2.5-0.4 0.7-0.4-4 0-4.7 0.2-6.7 0.4-4.5zm13 2c0.2 2.2 0.2 5.6 0 7.5-0.2 1.9-0.4 0.1-0.4-4 0-4.1 0.2-5.7 0.4-3.5z"/>
		<path id="Path 3" class="s1" d="m1305 272.6c-7.4 1.2-15 2.5-16.8 2.9-2.7 0.4-3.1 0.9-2.8 2.7 0.3 1.3 0.6 16.7 0.7 34.3l0.2 32c13.3-2 17.7-3.1 18.3-3.8 0.6-0.7 5-16.3 9.9-34.7 4.8-18.4 8.9-34.1 9.1-34.8 0.3-0.8-0.6-1.2-2.4-1.1-1.5 0.1-8.8 1.2-16.2 2.5zm-728.9 113.6c0.1 13.9 0.3 24.6 0.5 23.8 0.1-0.8 0.5-12.2 0.7-25.3 0.2-13 0-23.7-0.5-23.7-0.4 0-0.7 11.4-0.7 25.2z"/>
		<path id="Path 4" fill-rule="evenodd" class="s0" d="m1481.5 119l39.9 126.2c22 69.5 43.1 136.5 54.1 171.6l-38.5 14.7c-21.2 8-38.8 14.3-39.1 13.8-0.3-0.4-5.7-22.9-11.9-49.8-6.2-26.9-11.6-49.4-11.9-49.8-0.3-0.4-12.8 0.6-27.6 2.3-14.8 1.7-27.3 3.4-27.7 3.8-0.3 0.4-6.1 25.9-12.8 56.7-6.7 30.8-12.5 56.3-12.9 56.6-0.3 0.4-16.1 0.1-35.1-0.7-19-0.8-34.6-1.6-34.8-1.7-0.2-0.1 19.5-75.6 43.8-167.7 24.3-92.1 44.4-167.7 44.7-168 0.3-0.3 14.3-2.1 31.1-4.1 16.9-2 32.5-3.7 38.7-3.9zm-149.7 26.1c1.1-0.1 1.2 3.9 0.7 20.6-0.3 11.5-0.9 28.3-2 54.2l-5.5 0.9c-3 0.6-24.1 4.1-88 14.7v10.5c0 5.8 0.9 61.1 2 123 1.1 61.9 2 116.7 2 131h-36c-19.8 0-36-0.1-36.1-0.3 0-0.1-1.1-56.3-2.2-124.9-1.2-68.5-2.4-124.9-2.7-125.3-0.3-0.3-23.8 5.9-52.3 13.9-28.4 8-52.3 14.6-53 14.6-0.9 0-1.7-9.3-3.4-37.2-1.2-20.5-1.8-37.6-1.5-37.9 0.4-0.3 18.7-4.5 40.7-9.3 22-4.7 58.2-12.4 80.5-17.1 22.3-4.7 62.3-12.8 89-18 26.7-5.3 52.5-10.4 57.5-11.4 5-1.1 9.6-1.9 10.3-2zm-290.1 50.9l-0.4 7.7c-0.2 4.3-0.8 14.8-1.4 23.3-0.5 8.5-1.2 38.2-1.6 66-0.4 32.3-0.2 60.9 0.6 79.5 0.6 15.9 2.1 41.8 3.2 57.5 1.1 15.7 3 39.7 4.4 53.5 1.3 13.7 2.3 25.1 2.2 25.2-0.1 0.2-16.3 2.9-35.9 6-23.7 3.9-36.1 5.5-36.7 4.8-0.5-0.5-17.2-34.1-37.1-74.5-19.9-40.4-36.6-74-37.1-74.5-0.6-0.6-0.9 8.2-0.9 24.2 0 13.9 0.5 33.1 1 42.5 0.6 9.5 1.7 24.9 2.6 34.3 0.8 9.4 2.4 24.2 3.4 33 1.1 8.8 1.7 16.2 1.4 16.5-0.3 0.3-16.6 2.4-36.2 4.7-19.7 2.3-35.8 4.1-35.8 4-0.1-0.1-0.7-13.5-1.3-29.7-0.6-16.2-1.6-46.8-2.1-68-0.6-21.2-1-75.6-1-121 0-45.4 0.1-82.6 0.3-82.7 0.1-0.2 17.3-1.9 38.2-3.8 20.9-2 39.3-3.4 40.8-3.3 2.7 0.3 3.7 2.3 30.3 65.8 15.2 36 28 66.6 28.5 68 0.5 1.4 1.1 2.3 1.4 2 0.2-0.3-0.2-5.2-0.9-11-0.8-5.8-1.4-11.2-1.4-12 0-0.8-0.6-7.4-1.3-14.5-0.9-8.6-1.3-30.4-1.4-117l34.5-3.1c19-1.7 35.7-3.2 39.7-3.4zm-217.7 1v91l-2.3 0.4c-1.2 0.3-27.6 3-58.7 6.1-31.1 3-58.4 5.8-65 6.5v48l4.2-0.6c2.4-0.3 26.3-3.2 53.3-6.4 27-3.2 49.2-5.6 49.5-5.4 0.3 0.3 0 16.5-0.5 35.9-0.5 19.4-1.2 35.6-1.5 35.9-0.3 0.3-24 2.9-105 11.1v45.5l3.7-0.5c2.1-0.3 28.1-3.4 57.8-7 29.7-3.5 54.1-6.3 54.1-6.2 0.1 0.1-0.3 20-0.8 44.2-0.6 24.2-1.1 44.1-1.2 44.2 0 0.2-42.6 4.7-94.6 10.2-52 5.5-94.7 9.7-95 9.5-0.3-0.3 1-72.9 2.8-161.2 1.8-88.4 3.5-165.2 4.4-180.7l93.1-10.1c51.3-5.6 95.1-10.2 101.7-10.4zm-201.8 33.1c0.5-0.1 0.8 3.6 0.8 8.1-0.1 4.6-0.5 21.3-1 37.3-0.5 15.9-1.1 29.1-1.2 29.2-0.2 0.1-21.2 3.7-46.8 7.9-25.6 4.3-46.6 7.8-46.8 8-0.1 0.1 0.7 54.3 1.8 120.5 1.1 66.2 2 125.7 2 143.9h-72l-0.1-2.3c0-1.2-1-57.4-2.2-124.9-1.2-67.4-2.4-122.9-2.7-123.2-0.3-0.3-24.2 6.1-53.2 14.2-29 8.1-52.8 14.7-52.9 14.7 0 0-1.1-16.9-2.4-37.5-1.2-20.6-2-37.8-1.6-38.1 0.3-0.3 18.6-4.5 40.6-9.2 22-4.8 56-12 75.5-16.1 19.5-4.1 58.2-12 86-17.5 27.8-5.5 56.1-11.2 63-12.5 6.9-1.3 12.8-2.5 13.3-2.5zm680.5 112c1.4-0.1 2 0.4 1.7 1.1-0.2 0.7-3.6 13.7-7.6 28.8-3.9 15.1-7.5 28.2-7.9 29-0.6 1.1-1 0.5-1.5-2-0.3-1.9-0.5-15 0-54.5l6.5-1.1c3.6-0.6 7.5-1.2 8.8-1.3zm-666.5 430.6l7.6 0.5c4.3 0.3 9 1.2 10.9 2.1 1.7 0.9 4 2.9 5 4.4 1 1.7 1.7 4.6 1.7 7.8 0 3.4-0.7 6-2.1 8-1.2 1.6-4 3.8-6.2 4.7-2.6 1.1-6.8 1.8-17.2 1.8zm112.7 9.2c2 0 4.5 0.7 5.8 1.5 1.2 0.9 2.7 3.2 3.3 5.3 0.9 3 0.8 4.5-0.5 7.5-1 2.3-2.6 4.2-4.3 4.8-1.5 0.6-4.3 0.8-6.3 0.5-1.9-0.3-4.1-1.1-4.8-1.8-0.7-0.7-1.8-2.8-2.4-4.7-0.8-2.7-0.8-4.3 0.3-6.9 0.8-1.9 2.3-4.1 3.4-4.8 1.1-0.7 3.6-1.4 5.5-1.4zm30.5 0.1c1.9 0 4.3 0.3 5.2 0.7 0.9 0.4 2.2 2 3 3.5 0.7 1.5 1.3 3 1.3 3.3 0 0.2-4 0.5-9 0.5-7.4 0-9-0.3-8.9-1.6 0-0.8 1.1-2.6 2.4-4 1.7-1.7 3.5-2.4 6-2.4zm141.5-0.1c2 0 4.7 0.9 6.3 2q2.7 2.1 3.3 5.8c0.4 2.3 0.1 4.9-0.7 6.7-0.8 1.6-2.3 3.5-3.4 4.2-1.1 0.8-3.2 1.4-4.7 1.4-1.5 0-3.8-0.5-5-1-1.3-0.6-2.8-2.1-3.4-3.3-0.7-1.2-1.4-2.9-1.7-3.7-0.3-0.9-0.1-3.2 0.4-5.3 0.5-2.1 1.9-4.4 3.2-5.3 1.2-0.8 3.8-1.5 5.7-1.5zm47 0c2 0 4.7 0.9 6.3 2q2.7 2.1 3.3 5.8c0.4 2.3 0.1 4.9-0.7 6.7-0.8 1.6-2.3 3.5-3.4 4.2-1.1 0.8-3.2 1.4-4.7 1.4-1.5 0-3.8-0.5-5-1-1.3-0.6-2.8-2.1-3.4-3.3-0.7-1.2-1.4-2.9-1.7-3.7-0.3-0.9-0.1-3.2 0.4-5.3 0.5-2.1 1.9-4.4 3.2-5.3 1.2-0.8 3.8-1.5 5.7-1.5zm-284.7 11.1c5.4 0 5.7 0.1 5.7 2.5 0 1.3-0.9 3.4-2 4.5-1.3 1.3-3.3 2-5.7 1.9-2.1 0-4.4-0.3-5.1-0.7-0.7-0.4-1.3-2.1-1.3-3.7 0-1.7 0.6-3.4 1.3-3.8 0.7-0.4 3.9-0.7 7.1-0.7zm316 0c5.3 0 5.7 0.1 5.7 2.2 0 1.2-1 3.3-2.2 4.5-1.6 1.7-3.4 2.3-6.3 2.3-2.2 0-4.5-0.6-5.2-1.3-0.7-0.7-1.4-2.2-1.5-3.4 0-1.3 0.7-2.7 1.8-3.3 1.1-0.5 4.5-1 7.7-1zm49 0c5.3 0 5.7 0.1 5.7 2.2 0 1.2-1 3.3-2.2 4.5-1.6 1.7-3.4 2.3-6.3 2.3-2.2 0-4.5-0.6-5.2-1.3-0.7-0.7-1.4-2.2-1.5-3.4 0-1.3 0.7-2.7 1.8-3.3 1.1-0.5 4.5-1 7.7-1zm100.4 0c5.7 0 6.3 0.2 6.3 2 0 1.1-1 3.1-2.2 4.5q-2.3 2.5-5.9 2.7c-2 0.2-4.3-0.4-5.3-1.2-0.9-0.9-1.7-2.5-1.8-3.6-0.1-1.1 0.5-2.6 1.2-3.2 0.8-0.7 4.3-1.2 7.7-1.2zm76 0c5.9 0 6.3 0.1 6.3 2.2 0 1.2-1 3.3-2.2 4.5-1.6 1.7-3.4 2.3-6.3 2.3-2.2 0-4.5-0.6-5.2-1.3-0.7-0.7-1.4-2.2-1.5-3.3-0.1-1.1 0.5-2.6 1.2-3.2 0.8-0.7 4.3-1.2 7.7-1.2zm70.5 0c5.8 0 5.8 0 5.8 3q0 3-2.2 4.5c-1.3 0.8-3.7 1.6-5.4 1.7-1.7 0.2-3.8-0.4-4.8-1.2-0.9-0.9-1.7-2.5-1.8-3.6-0.1-1.1 0.5-2.6 1.2-3.2 0.8-0.7 4-1.2 7.2-1.2zm82.9 0c5.7 0 5.9 0.1 5.9 2.5 0 1.3-1 3.4-2.2 4.5-1.5 1.3-3.6 2-6.5 2-3.3 0-4.5-0.5-5.3-2-0.5-1.1-1-2.5-1-3-0.1-0.5 0.6-1.6 1.5-2.5 1.1-1 3.6-1.5 7.6-1.5zm49 0c5.7 0 5.9 0.1 5.9 2.5 0 1.3-0.9 3.4-2 4.5-1.1 1.1-3 2-4.2 2.1-1.3 0-3.2 0-4.3-0.1-1.1-0.1-2.5-0.9-3.2-1.9-0.7-0.9-1.3-2.2-1.4-2.8 0-0.7 0.7-1.9 1.6-2.8 1.1-1 3.6-1.5 7.6-1.5zm-880.4 49c2.1 0 4.5 0.6 5.4 1.2 0.9 0.7 2.1 2.2 2.7 3.3 0.7 1.1 0.9 2.3 0.5 2.7-0.3 0.4-4.4 0.8-8.9 0.8-6.9 0-8.4-0.3-8.3-1.6 0-0.8 1.1-2.6 2.4-4 1.8-1.8 3.5-2.4 6.2-2.4zm43.2-0.1c2.1 0 4.8 0.8 6.4 2 1.5 1.1 2.7 3 2.7 4.1 0 1.8-0.6 2-9 2-8.1 0-8.9-0.2-8.3-1.8 0.3-1 1.5-2.8 2.6-4 1.4-1.5 3.2-2.3 5.6-2.3zm100.3 0.1c2.9 0 4.5 0.7 6.8 3 2.4 2.3 3 3.8 3 7 0 3-0.7 4.7-2.9 7-2.2 2.2-3.8 3-6.5 3-2.6 0-4.4-0.8-6.6-3-2.3-2.4-3-4-3.1-7.4-0.1-3.6 0.4-4.9 2.6-7 2-1.9 3.9-2.6 6.7-2.6zm459.5-0.1c2.2 0 4.8 0.7 6.1 1.8 1.2 1 2.5 2.8 2.7 4 0.5 2.2 0.3 2.3-8.5 2.3-7.4 0-9-0.3-8.9-1.6 0-0.8 1.1-2.6 2.4-4 1.7-1.7 3.6-2.5 6.2-2.5zm93.5 0.1c2.8 0 4.5 0.7 6.3 2.5 1.4 1.3 2.6 3.5 2.6 4.7 0.1 1.2 0.1 3.2 0 4.3-0.1 1.1-0.7 3-1.4 4.2-0.6 1.2-2.2 2.7-3.4 3.3-1.3 0.5-3.5 1-5 1-1.5 0-3.7-0.6-4.8-1.4-1.1-0.7-2.6-2.6-3.3-4.2-0.8-1.8-1.1-4.4-0.8-6.7 0.4-2.4 1.6-4.4 3.3-5.7 1.6-1.2 4.2-2 6.5-2zm33.1 0c2.7 0 4.4 0.7 6.2 2.5 1.4 1.3 2.5 3.1 2.5 4 0 1.2-1.6 1.5-8.2 1.5-4.6 0-8.6-0.3-9-0.8-0.4-0.4-0.2-1.6 0.4-2.7 0.6-1.1 1.9-2.6 2.7-3.3 0.9-0.6 3.3-1.2 5.4-1.2zm129.4-0.1c2.2 0 4.8 0.7 6.1 1.8 1.2 1 2.5 2.8 2.7 4 0.5 2.2 0.3 2.3-8.5 2.3-7.4 0-9-0.3-8.9-1.6 0-0.8 1.1-2.6 2.4-4 1.7-1.7 3.6-2.5 6.2-2.5zm44.2 0c2.5 0 4.3 0.7 5.7 2.3 1.2 1.2 2.4 3 2.8 4 0.6 1.6-0.2 1.8-8.4 1.8-8.2 0-9-0.2-9.1-2 0-1 1.2-2.8 2.7-4 1.6-1.2 4.3-2.1 6.3-2.1zm47.3 0.1c2.8 0 4.5 0.7 6.3 2.5 2 1.9 2.5 3.4 2.5 7.2 0 2.6-0.6 5.5-1.3 6.3-0.6 0.9-2.2 2.2-3.4 2.8-1.3 0.6-3.5 1.2-5 1.2-1.5 0-3.7-0.6-4.8-1.4-1.1-0.7-2.6-2.6-3.3-4.2-0.8-1.8-1.1-4.4-0.8-6.7 0.4-2.4 1.6-4.4 3.3-5.7 1.6-1.2 4.2-2 6.5-2zm64.8-0.1c2 0 4.7 0.9 6.3 2q2.7 2.1 3.3 5.8c0.4 2.3 0.1 4.9-0.7 6.7-0.8 1.6-2.3 3.5-3.4 4.2-1.1 0.8-3.2 1.4-4.7 1.4-1.5 0-3.8-0.5-5-1-1.3-0.6-2.8-2.1-3.4-3.3-0.7-1.2-1.4-2.9-1.7-3.7-0.3-0.9-0.1-3.2 0.4-5.3 0.5-2.1 1.9-4.4 3.2-5.3 1.2-0.8 3.8-1.5 5.7-1.5zm-806.9 11.1c5.7 0 5.9 0.1 5.9 2.5 0 1.3-0.9 3.4-2 4.5-1.1 1.1-3 2-4.2 2.1-1.3 0-3.2 0-4.3-0.1-1.1-0.1-2.5-0.9-3.2-1.9-0.7-0.9-1.3-2.2-1.4-2.8 0-0.7 0.7-1.9 1.6-2.8 1.1-1 3.6-1.5 7.6-1.5zm56 0c5.7 0 5.9 0.1 5.9 2.5 0 1.3-0.9 3.4-2 4.5-1.1 1.1-3 2-4.2 2.1-1.3 0-3.2 0-4.3-0.1-1.1-0.1-2.5-0.9-3.2-1.9-0.7-0.9-1.3-2.2-1.4-2.8 0-0.7 0.7-1.9 1.6-2.8 1.1-1 3.6-1.5 7.6-1.5zm71.2 0c5.3 0 5.7 0.1 5.7 2.2 0 1.2-1 3.3-2.2 4.5-1.6 1.7-3.4 2.3-6.3 2.3-2.2 0-4.5-0.6-5.2-1.3-0.7-0.7-1.4-2.2-1.5-3.4 0-1.3 0.7-2.7 1.8-3.3 1.1-0.5 4.5-1 7.7-1zm81.9 0c5.8 0 5.8 0 5.8 3q0 3-2.2 4.5c-1.3 0.8-3.7 1.6-5.4 1.7-1.7 0.2-3.8-0.4-4.8-1.2-0.9-0.9-1.7-2.5-1.8-3.6-0.1-1.1 0.5-2.6 1.2-3.2 0.8-0.7 4-1.2 7.2-1.2zm49 0c5.8 0 5.8 0 5.8 3q0 3-2.2 4.5c-1.3 0.8-3.8 1.5-5.8 1.6-2.4 0.1-3.9-0.5-4.7-1.8-0.7-1-1.4-2.5-1.5-3.4-0.1-0.8 0.5-2.1 1.2-2.7 0.8-0.7 4-1.2 7.2-1.2zm82.9 0c5.7 0 5.9 0.1 5.9 2.5 0 1.3-1 3.4-2.2 4.5-1.5 1.3-3.6 2-6.5 2-3.3 0-4.5-0.5-5.3-2-0.5-1.1-1-2.5-1-3-0.1-0.5 0.6-1.6 1.5-2.5 1.1-1 3.6-1.5 7.6-1.5zm103.6 0c5.9 0 6.3 0.1 6.3 2.2 0 1.2-1 3.3-2.2 4.5-1.6 1.7-3.4 2.3-6.3 2.3-2.2 0-4.5-0.6-5.2-1.3-0.7-0.7-1.4-2.2-1.5-3.3-0.1-1.1 0.5-2.6 1.2-3.2 0.8-0.7 4.3-1.2 7.7-1.2zm-221.3 49c2.9 0 4.8 0.7 6.4 2.2 1.3 1.3 2.3 3 2.3 4-0.1 1.5-1.2 1.8-9.1 1.8-8.1 0-8.9-0.2-8.3-1.8 0.3-1 1.5-2.8 2.6-4 1.5-1.6 3.2-2.2 6.1-2.2zm72-0.1c3 0 4.7 0.6 6.2 2.3 1.2 1.2 2.4 3 2.8 4 0.6 1.6-0.2 1.8-8.4 1.8-7.7 0-9-0.3-9.2-1.7-0.1-1 0.9-2.8 2.2-4 1.7-1.7 3.6-2.4 6.4-2.4zm85.1 0.1c2.2 0 4.7 0.6 5.6 1.2 0.9 0.7 2.1 2.3 2.8 3.5 0.6 1.2 1.1 3.8 1.1 5.8 0 2.5-0.8 4.2-3 6.5-2.3 2.1-4.1 3-6.5 3-2.5 0-4.3-0.9-6.5-3-2.2-2.2-3-4-3-6.5 0-2 0.6-4.6 1.2-5.8 0.6-1.2 1.9-2.8 2.7-3.5 0.9-0.6 3.4-1.2 5.6-1.2zm31.7 0c2.8 0 4.5 0.7 6.3 2.5 2 1.9 2.5 3.4 2.5 7.2 0 2.6-0.6 5.5-1.3 6.3-0.6 0.9-2.2 2.2-3.4 2.8-1.3 0.6-3.5 1.2-5 1.2-1.5 0-3.7-0.6-4.8-1.4-1.1-0.7-2.6-2.6-3.3-4.2-0.8-1.8-1.1-4.4-0.8-6.7 0.4-2.4 1.6-4.4 3.3-5.7 1.6-1.2 4.2-2 6.5-2zm47-0.1c2.7 0 5.2 0.7 6.7 1.8 1.6 1.2 2.5 3.1 2.8 6.3 0.5 3.7 0.1 4.9-2 7.5-2.1 2.5-3.2 3-7 3-3.5 0-5.1-0.6-7.1-2.5-2.1-2-2.6-3.5-2.6-6.8 0.1-3.2 0.8-5 2.5-6.8 1.8-1.8 3.5-2.5 6.7-2.5zm34.3 0.1c2.2 0 4.7 0.6 5.6 1.2 0.9 0.7 2.1 2.3 2.8 3.5 0.6 1.2 1.1 3.8 1.1 5.8 0 2.5-0.8 4.2-3 6.5-2.3 2.1-4.1 3-6.5 3-2.5 0-4.3-0.9-6.5-3-2.2-2.2-3-4-3-6.5 0-2 0.6-4.6 1.2-5.8 0.6-1.2 1.9-2.8 2.7-3.5 0.9-0.6 3.4-1.2 5.6-1.2zm-333.4 11c5.7 0 5.9 0.1 5.9 2.5 0 1.3-1 3.4-2.2 4.5-1.5 1.3-3.6 2-6.5 2-3.3 0-4.5-0.5-5.3-2-0.5-1.1-1-2.5-1-3-0.1-0.5 0.6-1.6 1.5-2.5 1.1-1 3.6-1.5 7.6-1.5zm93.2 0c5.4 0 5.7 0.1 5.7 2.5 0 1.3-1 3.4-2.2 4.5-1.7 1.6-3.4 2-6.8 1.8-3.9-0.3-4.6-0.7-5.5-3.2-0.8-2.4-0.7-3.1 1-4.2 1.2-0.9 4.4-1.4 7.8-1.4z"/>
		<path id="Path 5" class="s2" d="m770 790.3c0 0.4 4.4 0.6 9.8 0.5 5.3 0 8.3-0.3 6.7-0.4-1.6-0.2-6-0.5-9.8-0.6-3.7-0.2-6.7 0-6.7 0.5zm-86 2.4c4.8 0.4 5.5 0.7 5.6 2.6 0.1 1.2 0.2 1 0.3-0.5 0.1-2.8 0-2.8-5.6-2.6l-5.8 0.2zm744.4 0c4.2 0.3 5 0.7 5.1 2.5 0.2 1.4 0.3 1.2 0.4-0.5 0.1-2.7 0-2.8-5.1-2.6l-5.3 0.2zm-882.4 57.3l-9.5 0.6c15.7 0.3 19.5 0 19.5-0.6 0-0.6-0.1-1-0.2-0.8-0.2 0.1-4.6 0.4-9.8 0.8zm594 0.2c0 0.4 4.6 0.7 10.3 0.6 5.6-0.1 8.9-0.3 7.2-0.5-1.6-0.1-6.3-0.4-10.2-0.6-4-0.1-7.3 0.1-7.3 0.5zm127 0c0 0.4 4.4 0.7 9.8 0.6 5.3-0.1 8.4-0.3 6.7-0.5-1.6-0.1-6-0.4-9.7-0.6-3.8-0.1-6.8 0.1-6.8 0.5zm129 0c0 0.4 4.6 0.7 10.3 0.6 5.6-0.1 8.9-0.3 7.2-0.5-1.6-0.1-6.3-0.4-10.2-0.6-4-0.1-7.3 0.1-7.3 0.5zm44.8 0c0.4 0.4 4.8 0.7 9.7 0.5l9-0.3c-15-0.7-19.1-0.6-18.7-0.2zm-855.8 0.5c2.5 0.2 6.8 0.2 9.5 0 2.8-0.2 0.7-0.4-4.5-0.4-5.2 0-7.5 0.2-5 0.4zm171.4 2c4.2 0.3 5 0.7 5.1 2.6 0.2 1.4 0.3 1.2 0.4-0.6 0.1-2.7 0-2.7-5.1-2.6l-5.3 0.2zm56 0c4.2 0.3 4.9 0.7 5.1 2.6 0.1 1.4 0.3 1.2 0.4-0.6 0.1-2.6 0-2.7-5.2-2.5l-5.2 0.2zm162.1 58c2.7 0.2 6.8 0.2 9-0.1 2.2-0.2-0.1-0.3-5-0.3-5 0-6.8 0.1-4 0.4zm72 0c2.7 0.2 6.8 0.2 9-0.1 2.2-0.2-0.1-0.3-5-0.3-5 0-6.8 0.1-4 0.4zm399.1-682.8c-0.3 0.8-3.9 16.7-7.9 35.3-6.7 31.5-7.1 33.7-5.2 33.3 1.1-0.2 8.2-1.5 15.7-2.7 11.2-1.9 13.7-2.7 13.3-3.9-0.3-0.8-3.7-15-7.5-31.5-3.9-16.5-7.3-30.4-7.4-31-0.2-0.5-0.7-0.3-1 0.5z"/>
	</g>
</svg>