<svg version="1.2" xmlns="http://www.w3.org/2000/svg" viewBox="0 0 1920 1080" width="1920" height="1080">
	<title>ZDxM4R7</title>
	<style>
		.s0 { fill: #ee73d5 } 
		.s1 { fill: #ffffff } 
	</style>
	<g id="Background">
		<path id="Path 0" fill-rule="evenodd" class="s0" d="m485.1 312.9l22.7 0.6c12.5 0.3 63.9 1 114.2 1.5 50.3 0.5 105.1 1.2 152 2v44l3.7 0.1c2.1 0 30.2 0.8 62.5 1.7 35.6 1 59 2.1 59.6 2.7 0.5 0.6 15.9 37.5 34.3 82.2 18.4 44.6 33.4 81.1 33.5 81 0.1-0.1-0.5-7.6-1.2-16.7-0.7-9.1-1.8-34.9-2.5-57.5-0.7-24-0.9-54.6 0.1-106.5l10.2 0.5c5.7 0.3 32.3 1.2 59.3 2.1 27 0.8 49 1.6 49.1 1.7 0 0.1-0.5 8.1-1.2 17.7-0.8 9.6-2.1 29.9-2.9 45-0.9 15.1-1.8 49.8-2.2 77-0.3 30.1-0.1 63.6 0.6 85.5 0.6 19.8 1.6 44.5 2.1 55 0.6 10.5 2 31.8 3.1 47.5 1.1 15.7 2.6 35.7 3.4 44.5 0.8 8.8 2.7 27.5 4.2 41.5 1.4 14 2.4 26.2 2.1 27-0.5 1.3-8.8 1.8-56.4 3.3-30.8 1-56.2 1.4-56.5 1-0.4-0.4-21.5-44.2-46.9-97.3-25.4-53.1-47.1-98.1-50.1-103.5l0.5 30.5c0.3 16.8 1.2 40 2.1 51.5 0.8 11.5 2.2 28.6 3 38 0.9 9.4 2.9 28 4.5 41.5 1.7 13.5 3.2 25.7 4 30h-116v-4c0-2.2-0.7-21.2-1.5-42.2-0.8-21.1-1.9-53.8-2.5-72.8-0.5-19-1.5-75-2.1-124.5-0.6-49.5-1.1-90-1.2-90.1-0.1-0.1-35.5-0.6-78.7-1.3-43.2-0.6-83.3-1.1-100-1.1v53h153v3.3c0 1.7-0.7 26.8-1.6 55.7-0.9 28.9-1.7 52.6-1.8 52.8 0 0.1-23.1-0.2-51.1-0.8-28-0.5-61.7-1.2-98.5-2v51h165l-0.5 17.3c-0.3 9.4-1 39.2-1.6 66.2-0.6 27-1.2 49.1-1.2 49.3-0.1 0.2-63.4-0.6-140.7-1.7-77.3-1.1-140.5-2.2-140.6-2.3 0-0.2 1.7-78.8 3.8-174.8 2-96 3.7-174.6 3.5-174.8-0.1-0.1-29.1 1-128.7 5.3v15.5c0 8.5 1.3 90.4 2.9 182 1.6 91.6 2.7 166.7 2.5 167-0.3 0.3-26-2.5-57.2-6.2-31.2-3.7-56.8-6.9-56.9-7 0-0.2-1.5-77.5-3.3-171.8-1.7-94.3-3.2-171.6-3.3-171.7-0.1-0.1-33.9 5.1-75 11.5-41.2 6.4-75.1 11.4-75.3 11-0.2-0.5-2-26.8-3.8-58.5-1.9-31.8-3.4-57.9-3.3-57.9 0.1-0.1 14.8-1.5 32.7-3.3 17.9-1.7 54.5-5.1 81.5-7.6 26.9-2.5 70.6-6.3 97-8.5 26.4-2.2 65.3-5.3 86.5-6.9 21.2-1.7 52.9-3.9 70.5-5.1 17.6-1.2 33-2.3 34.2-2.6 2.2-0.4 2.3-0.9 2.3-8.4zm1109.3 5h108.7l2.9 9.3c1.6 5.1 32.1 102.4 67.9 216.2 35.8 113.9 65.1 207.6 65.1 208.3 0 0.7-1 1.5-2.2 1.8-1.2 0.3-28.3 7.2-60.2 15.3-31.9 8.2-58.4 14.6-58.7 14.2-0.4-0.3-8.3-32.8-34.3-144.1h-69.5l-3 12.8c-1.6 7-9.5 41.3-17.6 76.2-8.1 35-14.9 63.8-15.3 64.2-0.4 0.3-25.5-3.3-55.8-8-30.3-4.8-55.4-8.9-55.7-9.2-0.3-0.2 27.3-99.5 61.4-220.5 34.1-121 62.9-223.7 64.1-228.2zm40 234.2c-0.3 1.7 0.7 1.8 13.9 1.2 7.9-0.4 14.4-0.7 14.6-0.8 0.2-0.1-2.9-13.8-6.8-30.6-3.9-16.8-7.2-30.8-7.3-31.2-0.1-0.4-3.3 12.9-7.1 29.5-3.8 16.6-7.1 31-7.3 31.9zm-142.6-223c2.3-0.2 2.3-0.1 2.2 13.5 0 7.6-0.6 33.2-1.2 57-0.7 23.7-1.4 43.3-1.7 43.6-0.3 0.3-30.4 1.8-133.3 6.2l0.7 23.5c0.3 12.9 1.8 94.7 3.4 181.7 1.5 87 2.3 158.5 1.9 159-0.5 0.4-26-2.1-56.7-5.7-30.7-3.6-56.2-6.9-56.6-7.3-0.5-0.5-2.3-77.7-3.9-171.7-1.7-94-3.2-171.1-3.5-171.3-0.3-0.3-34 4.8-75 11.2-41 6.5-74.8 11.5-75.1 11.2-0.3-0.3-2.1-26.6-4-58.3-1.9-31.7-3.2-57.9-2.9-58.1 0.3-0.3 10.4-1.4 22.5-2.6 12.1-1.2 46.1-4.4 75.5-7.1 29.4-2.7 72.2-6.5 95-8.5 22.8-1.9 58.4-4.8 79-6.5 20.6-1.6 56.6-4.3 80-5.9 23.4-1.7 44.5-3.2 47-3.4 2.5-0.2 5.5-0.4 6.7-0.5z"/>
		<path id="Path 1" fill-rule="evenodd" class="s1" d="m509.8 325c7.5 0 61.2 0.7 119.2 1.5 58 0.8 111.7 1.5 133 1.5v57.5c0 45.3-0.3 57.5-1.3 57.5-0.6 0-35.6-0.7-77.7-1.5-42.1-0.8-81.8-1.5-100-1.5v77h152.5c-0.4 12.1-1.8 53.9-3 88h-12.3c-6.7 0-32.6-0.4-57.5-1-24.8-0.5-53-1.2-79.7-2v74h164l-0.6 32.3c-0.4 17.7-0.9 42.6-1.9 78.2l-19.5-0.3c-10.7-0.1-68.8-1-129-1.8-60.2-0.9-109.6-1.7-109.7-1.7-0.1-0.1 0.7-39.8 1.7-88.2 1.1-48.4 3.3-150.5 5-227 1.6-76.5 3-139.8 3-140.8 0-1.5 1.3-1.7 13.7-1.7zm1093.6 4h91.2l65.2 207.8c35.9 114.2 65.2 207.8 65 207.9-0.1 0.1-22.4 5.8-49.4 12.7-44.1 11.3-49.3 12.4-49.8 10.8-0.2-0.9-7.7-32.7-16.5-70.7-8.9-38-16.3-69.3-16.6-69.8-0.2-0.4-20-0.7-87.4-0.7l-0.9 4.2c-0.5 2.4-8.5 36.7-17.6 76.3-9.2 39.6-16.8 72.1-16.9 72.1 0 0.1-19.9-2.9-44.1-6.7-24.2-3.8-44.2-7.1-44.5-7.4-0.3-0.3 27.1-98.6 60.9-218.5zm31 223.2c-0.3 1.6 0.7 1.7 13.9 1.1 7.9-0.3 14.4-0.7 14.6-0.7 0.2-0.1-2.9-13.9-6.8-30.6-3.9-16.8-7.2-30.9-7.3-31.3-0.1-0.4-3.3 12.9-7.1 29.5-3.8 16.7-7.1 31.1-7.3 32zm-1157.3-210.2v4.2c0 2.4-0.5 22.7-1.1 45.3-0.7 22.5-1.2 41-1.3 41.1-0.1 0.1-30 1.4-66.6 2.9-36.6 1.6-66.6 2.8-66.8 2.9-0.1 0 1.1 81.7 2.8 181.6 1.7 99.8 2.9 181.5 2.8 181.6-0.2 0-20.8-2.4-45.8-5.4-25-3-45.6-5.5-45.6-5.6-0.1-0.1-1.5-78-3.2-173.1-1.7-95.2-3.3-173.2-3.4-173.3-0.2-0.1-33.9 5-75 11.5-41.1 6.5-75.1 11.4-75.5 10.9-0.5-0.4-2-21.4-3.5-46.5-1.4-25.1-2.6-45.8-2.5-45.9 0.1-0.2 6-0.9 13.2-1.7 7.1-0.8 37.3-3.7 67-6.5 29.7-2.7 83.5-7.5 119.5-10.5 36-3 87.1-7 113.5-9 26.4-1.9 49.8-3.6 52-3.8 2.2-0.2 7.5-0.5 19.5-0.7zm1006 0l-0.6 12.2c-0.3 6.8-0.9 27.1-1.4 45.3-0.5 18.1-1.1 33-1.2 33.1-0.2 0.1-30 1.4-66.3 2.9-36.3 1.5-66.3 3-66.6 3.4-0.3 0.3 0.9 81.8 2.6 181.1 1.7 99.2 2.9 180.7 2.6 181.1-0.4 0.3-20.9-1.9-45.6-4.8-24.8-3-45.1-5.5-45.3-5.6-0.1-0.1-1.6-78.1-3.4-173.2-1.7-95.2-3.2-173.2-3.2-173.3-0.1-0.2-34 5-75.3 11.5-41.4 6.5-75.4 11.5-75.7 11.3-0.2-0.3-1.7-21.1-3.3-46.2-1.5-25.1-2.4-46.1-2-46.5 0.5-0.5 8.8-1.6 18.5-2.5 9.7-1 47.4-4.5 83.7-7.8 36.3-3.3 87.8-7.8 114.5-10 26.7-2.2 69.9-5.6 96-7.5 26.1-1.9 49.5-3.6 52-3.8 2.5-0.2 8-0.5 20-0.7zm-508.3 18h2.9c1.6 0 22.9 0.7 47.4 1.5 24.5 0.9 44.7 1.8 45 2.1 0.3 0.3-0.1 7.8-0.8 16.7-0.7 8.9-1.7 25.2-2.3 36.2-0.6 11-1.4 37.7-1.8 59.5-0.3 21.7-0.3 58.4 0 81.5 0.4 23.1 1.2 51.6 1.8 63.5 0.6 11.8 1.8 31.8 2.6 44.5 0.9 12.6 2.4 33.8 3.5 47 1.1 13.2 3.1 34.3 4.4 47 1.3 12.6 2.1 23.2 1.9 23.5-0.3 0.2-21 1.2-46.2 2-32.6 1.2-45.9 1.3-46.8 0.5-0.6-0.5-24.4-49.6-52.9-109-28.4-59.4-51.7-108.2-51.8-108.4-0.1-0.1-2.4 0.1-10.1 1.4l-0.9 10c-0.6 6.3-0.5 24.2 0.2 48.5 0.7 21.1 1.9 47.5 2.7 58.5 0.8 11 2.4 29.2 3.5 40.5 1.2 11.2 2.7 25.6 3.5 32 0.8 6.3 1.7 12.9 2.5 18h-92v-5.8c0-3.1-0.5-15.4-1-27.2-0.5-11.9-1.7-46.7-2.6-77.5-1.2-40.6-1.7-88.6-1.8-174.2-0.1-65 0.1-118.4 0.4-118.8 0.3-0.3 24 0 52.7 0.7 31.8 0.8 52.5 1.7 53.1 2.3 0.5 0.5 19 44.8 41.1 98.5 22.1 53.6 40.5 98.1 40.9 98.8 0.6 1 1.6 1 5.7-0.1 3.1-0.9 4.9-2 4.8-2.9-0.1-0.7-1.1-8.5-2.2-17.3-1.1-8.8-2.5-21.2-3.1-27.5-0.6-6.4-1.5-18.1-2.1-26-0.6-8-1.3-42.8-1.6-77.3z"/>
		<path id="Path 2" fill-rule="evenodd" class="s0" d="m1643.1 463h10.9l1.4 6.3c0.8 3.4 6 25.4 11.5 49 5.6 23.5 10.1 43.3 10.1 44 0 0.9-7.1 1.5-28.7 2.4-15.9 0.7-28.8 1.2-28.9 1-0.1-0.1 3.9-17.3 8.7-38.2 4.9-20.9 10.2-44 12-51.3zm-8.9 89.3c-0.3 1.6 0.7 1.7 14 1.1 7.8-0.3 14.3-0.7 14.5-0.7 0.2-0.1-2.9-13.9-6.8-30.6-3.9-16.8-7.2-30.9-7.3-31.3-0.1-0.4-3.3 12.9-7.1 29.5-3.8 16.6-7.1 31-7.3 32z"/>
	</g>
</svg>